<svg width="1782" height="1762" viewBox="0 0 1782 1762" fill="none" xmlns="http://www.w3.org/2000/svg">
<g filter="url(#filter0_d_108_48)">
<path d="M282.672 1690.18C89.9857 1757.61 -240 1732.38 -240 1732.38V1361.83C-240 1361.83 -59.6369 1179.15 -38.8437 1030.23C-13.5594 849.136 -226.36 773.25 -206.567 591.517C-192.548 462.804 -162.512 378.543 -65.5903 289.667C74.4178 161.283 235.576 259.414 419.748 204.738C609.971 148.266 686.985 21.6205 885.026 3.50534C1078.54 -14.1957 1191.29 37.2357 1370.36 110.613C1522.89 173.112 1732 325.37 1732 325.37V770.571C1732 770.571 1625.65 886.777 1567.62 968.558C1473.09 1101.77 1494.68 1228.14 1370.36 1335.86C1171.66 1508.04 939.368 1319.89 693.9 1420.25C515.237 1493.29 465.047 1626.37 282.672 1690.18Z" fill="#327349"/>
</g>
<defs>
<filter id="filter0_d_108_48" x="-240" y="0" width="2027" height="1787" filterUnits="userSpaceOnUse" color-interpolation-filters="sRGB">
<feFlood flood-opacity="0" result="BackgroundImageFix"/>
<feColorMatrix in="SourceAlpha" type="matrix" values="0 0 0 0 0 0 0 0 0 0 0 0 0 0 0 0 0 0 127 0" result="hardAlpha"/>
<feOffset dx="50" dy="45"/>
<feGaussianBlur stdDeviation="2.5"/>
<feComposite in2="hardAlpha" operator="out"/>
<feColorMatrix type="matrix" values="0 0 0 0 0.94902 0 0 0 0 0.854902 0 0 0 0 0.67451 0 0 0 0.8 0"/>
<feBlend mode="normal" in2="BackgroundImageFix" result="effect1_dropShadow_108_48"/>
<feBlend mode="normal" in="SourceGraphic" in2="effect1_dropShadow_108_48" result="shape"/>
</filter>
</defs>
</svg>
