<svg width="52" height="70" viewBox="0 0 52 70" fill="none" xmlns="http://www.w3.org/2000/svg">
<path d="M42.506 0.767822C41.81 0.767822 41.398 1.45461 40.9197 3.40959C40.5642 4.86257 40.1078 6.30163 39.906 6.60751C39.7043 6.9134 39.3878 8.03964 39.2028 9.11024C39.0177 10.1809 38.5544 11.9327 38.1724 13.0034C37.7904 14.074 36.9918 16.7644 36.3975 18.9821C35.791 21.2452 35.0363 23.0142 34.6776 23.0142C33.5982 23.0142 31.6411 20.6315 30.4098 17.8187C28.9918 14.5793 25.3544 11.2413 21.8329 9.94773C19.8592 9.22275 18.5693 9.11779 15.914 9.46654C14.0465 9.71182 12.3056 9.91978 12.0459 9.92818C11.7863 9.93659 10.871 8.50607 10.0117 6.74872C8.00746 2.64938 7.43419 1.99548 6.62697 2.88819C6.14823 3.41765 6.15761 3.95243 6.67019 5.36375C8.02384 9.09115 8.02026 9.11024 5.98164 9.11024C3.90873 9.11024 0.197266 11.13 0.197266 12.2582C0.197266 13.2169 2.12986 14.5703 4.13112 15.0129C5.02135 15.2099 5.85526 15.5604 5.98459 15.7918C6.11392 16.0231 4.47099 17.5037 4.39141 19.9412C4.39141 19.9412 4.177 24.3864 4.22147 24.8011C4.47834 24.9432 5.48364 28.9267 5.48364 28.9267C6.17167 31.1934 6.73501 33.1676 6.73501 33.3141C6.73501 33.4606 6.22583 33.5847 5.60348 33.5889C3.30615 33.6057 2.02907 34.1186 2.36309 38.8116C2.67863 43.2449 5.19354 48.5544 7.24283 52.2213C7.83309 53.2775 9.93203 55.7727 11.9065 57.7655C15.1225 61.0116 15.3601 61.3893 14.1941 61.3893C13.4782 61.3893 12.6109 61.765 12.266 62.2246C11.5314 63.2035 11.9117 65.9905 13.04 67.8948C13.7981 69.1745 13.8061 69.1755 26.3021 69.1755C26.3021 69.1755 37.8306 69.1154 38.5537 68.8416C39.2769 68.5678 39.7752 67.1127 39.7752 67.1127C40.2404 66.0287 40.5383 64.5558 40.5887 63.728C40.6651 62.4742 40.4081 62.1346 39.0466 61.6913C38.1476 61.3986 38.4934 61.6698 38.2246 61.172C38.2825 60.7787 40.2723 58.2985 41.8733 57.0962C43.1176 56.1617 45.7044 52.5972 47.2024 49.4234C48.8575 45.9167 49.8183 38.1378 49.2726 35.0857C49.0751 33.9813 49.4289 32.6819 50.4955 30.5919C52.7432 26.1875 52.4203 23.3041 49.4917 21.6293C48.6838 21.1673 46.993 20.7896 45.7346 20.7896C44.4762 20.7896 43.447 20.5305 43.447 20.215C43.447 19.8994 43.9041 18.1389 44.4636 16.3023C45.0231 14.4656 45.8304 11.2982 46.2572 9.2634C46.6839 7.22857 47.2663 5.08142 47.5517 4.49149C47.9442 3.68049 47.8756 3.20287 47.2708 2.53407C46.1756 1.32289 45.8165 1.90092 44.219 7.44175C43.4694 10.0418 42.6844 12.5445 42.4746 13.0034C42.2648 13.4622 41.8124 15.2141 41.4688 16.8965C41.1251 18.5788 40.5484 20.7062 40.187 21.6238C39.8256 22.5415 39.3686 24.1683 39.1723 25.2389C38.5555 28.6026 37.0125 33.2652 36.4466 33.4737C35.4827 33.8291 36.1146 27.8667 37.4082 24.4046C37.6368 23.7929 38.4254 21.0399 39.1605 18.2869C39.8957 15.5339 40.8503 12.0301 41.2812 10.5006C42.0736 7.68818 43.3964 1.95233 43.4293 1.18495C43.4391 0.955536 43.0233 0.767822 42.506 0.767822ZM2.90724 11.9236C3.93465 11.894 5.6084 11.968 5.86376 12.0821C6.20425 12.2345 6.23803 12.225 5.40824 12.2145C4.57845 12.204 1.68322 12.1309 2.17253 11.9898C2.29486 11.9547 2.56477 11.9335 2.90724 11.9236ZM18.2802 12.2278C21.4484 12.2751 22.5886 12.5365 24.0822 13.5573C26.1996 15.0045 28.8628 18.7773 28.8628 20.3301C28.8628 21.1722 27.18 22.4581 26.0781 22.4581C25.966 22.4581 25.2952 21.0569 24.5871 19.3449C23.5065 16.7322 23.1809 16.3414 22.5608 16.9106C21.573 17.8172 21.6292 18.7472 22.8279 21.3458C24.0176 23.9247 24.0844 24.6827 23.1236 24.6827C22.7333 24.6827 21.8107 25.4748 21.0737 26.4435C19.9673 27.8976 19.7626 28.6496 19.8979 30.7538L20.062 33.3032C19.7054 33.3221 17.521 33.5739 15.0418 33.8681C18.9699 34.7265 23.4171 34.7924 21.0177 34.8022C22.1237 35.1624 20.5126 35.1525 18.0366 35.1531C18.584 35.4462 21.0708 35.7932 29.7016 35.7972C38.3226 35.8014 45.7342 35.957 46.1717 36.1427C48.0411 36.936 46.27 46.4221 43.3625 51.1894C41.3951 54.4154 38.202 57.3508 34.601 59.2439C31.2897 60.9849 25.2817 61.7597 21.8221 60.8918C13.531 58.8118 50.5936 45.6321 48.0104 36.5228C47.0443 33.116 12.9457 35.1543 18.0366 35.1531C18.0171 35.1426 17.9796 35.1319 17.9649 35.1216C16.6586 34.2082 10.7049 34.1802 7.27131 34.5457C4.09591 34.8838 22.0448 35.7588 27.1429 35.1541C25.2007 34.7297 11.2831 32.8283 10.4862 31.9247C7.71319 28.7805 6.34863 25.9769 7.23398 21.3631C8.2955 15.8313 11.5268 13.5592 12.4634 17.6861C12.8238 19.2742 14.7056 19.9871 15.1508 18.704C15.3201 18.2162 14.9454 16.8316 14.3188 15.6277C12.7699 12.6514 13.3503 12.154 18.2802 12.2278ZM42.9961 23.5595C43.4763 23.5785 44.0047 23.9976 44.2013 24.6827C44.3769 25.2945 44.8723 25.795 45.3024 25.795C45.9406 25.795 45.9694 25.9485 45.4586 26.6293C44.3813 28.0648 42.595 27.6731 42.2948 25.9363C42.1497 25.0968 42.1362 24.2208 42.2654 23.9897C42.4372 23.6823 42.708 23.5487 42.9961 23.5595ZM30.8184 23.57C31.0504 23.57 31.8127 24.2026 32.5128 24.9767C34.1966 26.839 34.6678 29.7136 33.6472 31.8962L32.8595 33.5809H28.1241C23.8 33.5809 23.3197 33.4733 22.605 32.3448C21.1459 30.0411 22.0824 26.8055 23.8504 28.0421C24.2561 28.3258 25.4309 28.5626 26.4612 28.5668C28.196 28.5752 28.411 28.3904 29.3657 26.0728C29.9327 24.6963 30.5864 23.57 30.8184 23.57ZM41.7831 32.4762C42.88 32.4825 43.0269 32.6061 42.4412 33.0248C41.475 33.7153 41.0669 33.7153 40.681 33.0248C40.5016 32.7038 40.9678 32.472 41.7831 32.4762ZM26.1331 64.7259C36.6739 64.7259 37.4739 64.7955 37.3169 65.6992C37.1632 66.5835 36.1813 66.6853 26.5771 66.8213C16.2272 66.9678 14.7815 66.7658 14.7815 65.1702C14.7815 64.9254 19.8894 64.7259 26.1331 64.7259Z" fill="black"/>
<path d="M13.918 34.0954C12.6486 33.7193 12.2202 33.5509 11.4604 33.1294C10.7624 32.7422 10.2011 32.1667 9.27607 30.89C7.55836 28.5192 6.48732 26.5551 6.48828 24.0118C6.48982 20.366 8.34744 16.3982 10.0522 15.4477C11.0867 14.8708 11.8933 15.5235 12.3656 17.3196C12.6185 18.2812 13.1044 18.8876 13.8097 19.1216C14.3028 19.2851 14.6796 19.2092 14.9603 18.8892C15.2255 18.5869 15.1738 18.2686 15.0794 17.6868C14.9677 16.9985 14.6061 16.5336 14.0523 15.3136C13.2849 13.6234 13.4108 12.8303 13.8042 12.4109C14.0799 12.117 14.3475 11.9916 14.9591 11.8701C16.2074 11.622 20.0347 11.6622 21.5241 11.9388C23.2058 12.2513 24.5611 13.108 26.0764 14.8165C27.951 16.93 29.2976 19.4312 29.0779 20.3912C29.0033 20.7168 28.5176 21.3095 28.0269 21.6737C27.5393 22.0356 26.8182 22.3597 26.5009 22.3597C26.1906 22.3597 26.2533 23.4688 24.4327 19.1845C23.8781 17.8795 23.3954 16.7403 23.0887 16.7403C22.783 16.7403 22.5934 16.7727 22.2635 17.259C22.0643 17.5526 22.0001 17.7504 22.0268 18.2852C22.0632 19.0112 22.2528 19.5978 23.11 21.6375C24.1432 24.0957 24.1803 24.5885 23.3435 24.7393C23.1609 24.7723 22.8677 24.8946 22.6919 25.011C22.2452 25.3072 21.0552 26.69 20.6545 27.3783C19.9575 28.5757 19.8736 29.1691 20.0251 31.8264C20.0843 32.8637 20.1154 33.7321 20.0943 33.7562C20.0624 33.7923 16.8639 34.1863 15.3271 34.3431C14.9659 34.3799 14.7515 34.3427 13.918 34.0954Z" fill="#FF8600"/>
<path d="M24.7445 33.8766C23.5438 33.7526 23.0885 33.5363 22.6018 32.8582C21.665 31.5531 21.3404 29.4112 21.8738 28.054C22.251 27.0944 22.8039 26.8846 23.6081 27.3958C24.318 27.8472 24.9274 27.9719 26.4244 27.9721C27.661 27.9723 27.7661 27.9595 28.0288 27.784C28.4824 27.4801 28.741 27.0087 29.4737 25.1496C30.1493 23.4353 30.7426 22.2124 30.9462 22.1145C31.0888 22.046 31.357 22.2379 31.9393 22.8247C32.9164 23.8091 33.521 24.7372 33.9545 25.9175C34.3898 27.103 34.4649 27.5546 34.4655 28.9923C34.4661 30.5546 34.3883 30.9122 33.66 32.6899L33.155 33.9225L29.2638 33.933C27.1236 33.9372 25.0899 33.9109 24.7445 33.8766Z" fill="#FF0000" stroke="#5B0000" stroke-width="0.0720787"/>
<path d="M16.6948 66.988C15.6959 66.8003 14.7576 66.3699 14.4278 65.9476C14.1334 65.5707 13.8617 64.3622 14.0265 64.1631C14.4269 63.6795 19.1217 63.4194 27.5112 63.4161C37.619 63.4119 38.6465 63.5819 38.4358 65.2227C38.2832 66.4107 37.168 66.7447 32.4604 67.0121C28.5604 67.2338 17.917 67.2167 16.6948 66.988Z" fill="#F2DAAC"/>
<path d="M7.21554 9.98797C5.34961 9.79669 3.82164 10.179 2.31946 10.9439C0.935934 11.6482 1.00072 11.779 0.977825 11.815C0.837192 12.0363 0.862196 12.3256 1.08548 12.7253C1.21705 13.0056 2.31946 13.4471 2.31946 13.4471C8.66682 16.367 2.97334 13.3601 3.56342 13.899C5.3815 14.5421 4.18197 14.2267 5.20607 14.7159C6.37028 15.2721 6.24717 15.0501 6.38823 14.7838C6.88062 13.2891 6.65935 14.0908 6.96037 13.0827C7.25602 12.0927 7.27933 11.3273 7.27933 11.3273C7.27933 11.3273 7.32969 10.4275 7.27933 10.0608C7.26853 9.98259 7.21554 9.98797 7.21554 9.98797Z" fill="#008000"/>
<path d="M7.11902 12.4992C7.07151 12.495 7.02291 12.5034 6.9755 12.4992C6.79806 12.4803 6.62546 12.4231 6.4492 12.395C6.20643 12.3561 6.41655 12.3949 6.20201 12.3689C6.16725 12.3647 6.13321 12.3542 6.09835 12.3521C6.0639 12.35 6.02901 12.3563 5.99469 12.3521C5.95947 12.3479 5.92608 12.3311 5.89104 12.326C5.8568 12.3197 5.82193 12.3197 5.78738 12.3176C5.71827 12.3071 5.64903 12.2953 5.58006 12.2829C5.37863 12.2464 5.60129 12.2892 5.4445 12.2394C5.38839 12.2226 5.32616 12.2268 5.26907 12.2134C5.21045 12.1986 5.15397 12.1841 5.09364 12.1787C5.02237 12.1724 4.94969 12.185 4.87834 12.1787C4.80616 12.1724 4.73518 12.1577 4.66304 12.1526C4.54726 12.1442 4.42825 12.1526 4.31218 12.1526C4.1935 12.1526 4.0715 12.1631 3.95335 12.1526C3.93714 12.1515 3.9216 12.1463 3.90553 12.1442C3.86413 12.14 3.81947 12.1442 3.77794 12.1442C3.6456 12.1442 3.51835 12.1484 3.38721 12.161C3.36603 12.1631 3.34449 12.1589 3.32343 12.161C3.31262 12.1627 3.3024 12.1694 3.29152 12.1694C3.23121 12.1757 3.16833 12.161 3.10811 12.1694C3.10232 12.17 3.09808 12.1778 3.0921 12.1778C3.06577 12.182 3.03902 12.1841 3.01236 12.1863C2.97639 12.1884 2.92095 12.1757 2.88477 12.1947" fill="black"/>
<path d="M16.2894 35.1197C16.248 35.1216 16.2067 35.126 16.1654 35.126C14.7108 35.2031 13.2559 35.274 11.8005 35.3145C10.6056 35.3465 9.41082 35.3641 8.21572 35.3585H6.01261C5.88233 35.3814 5.75149 35.3997 5.62217 35.4314C5.52195 35.457 5.42092 35.4758 5.32031 35.4982C5.54814 42.7387 7.89866 49.5844 11.8817 54.6077C15.8647 59.631 21.1728 62.4441 26.699 62.4604C31.9582 62.4539 37.0323 59.9134 40.9565 55.3218C44.8807 50.7302 47.3815 44.4077 47.9832 37.5564C47.7261 37.7008 47.469 37.8456 47.2053 37.9688C46.5224 38.2892 45.8299 38.5744 45.1195 38.7618C44.5313 38.9253 43.942 39.0842 43.3519 39.2351C42.6884 39.3803 42.0213 39.5003 41.3495 39.5467C40.6742 39.5942 39.9987 39.6022 39.3228 39.5677C38.6393 39.5362 37.9576 39.4679 37.2784 39.3577C36.6107 39.2589 35.9437 39.1498 35.279 39.0192C34.5779 38.8811 33.8785 38.7315 33.1829 38.5488C32.5557 38.3828 31.9287 38.2159 31.3045 38.0306C30.6397 37.8504 29.9732 37.678 29.3103 37.4853C28.623 37.2854 27.9371 37.078 27.2466 36.8991C26.6056 36.7334 25.9646 36.566 25.3188 36.4367C24.6561 36.294 23.9918 36.1665 23.3261 36.0523C22.6193 35.927 21.9102 35.8255 21.2034 35.7008C20.5836 35.5885 19.9632 35.4874 19.3398 35.4181C18.6744 35.3446 18.0093 35.2592 17.3433 35.1963C16.9923 35.1652 16.6407 35.1443 16.2894 35.1197Z" fill="#F2DAAC" stroke="black" stroke-width="0.417811"/>
</svg>
