<svg width="52" height="70" viewBox="0 0 52 70" fill="none" xmlns="http://www.w3.org/2000/svg">
<path d="M42.5065 0.767941C41.8105 0.767941 41.3985 1.45473 40.9202 3.40971C40.5647 4.86269 40.1083 6.30175 39.9065 6.60763C39.7048 6.91352 39.3883 8.03976 39.2032 9.11036C39.0182 10.181 38.5549 11.9329 38.1729 13.0035C37.7909 14.0741 36.9923 16.7645 36.398 18.9822C35.7915 21.2453 35.0368 23.0144 34.6781 23.0144C33.5986 23.0144 31.6415 20.6316 30.4103 17.8188C28.9923 14.5794 25.3549 11.2414 21.8334 9.94785C19.8597 9.22287 18.5698 9.11791 15.9145 9.46666C14.047 9.71194 12.3061 9.9199 12.0464 9.9283C11.7868 9.93671 10.8715 8.50619 10.0122 6.74884C8.00795 2.6495 7.43468 1.9956 6.62746 2.88831C6.14872 3.41777 6.15809 3.95255 6.67068 5.36387C8.02433 9.09127 8.02075 9.11036 5.98213 9.11036C3.90921 9.11036 0.197754 11.1301 0.197754 12.2583C0.197754 13.217 2.13035 14.5704 4.13161 15.013C5.02184 15.21 5.85575 15.5605 5.98508 15.7919C6.11441 16.0233 4.47148 17.5038 4.39189 19.9413C4.39189 19.9413 4.17749 24.3865 4.22196 24.8012C4.47883 24.9433 5.48413 28.9268 5.48413 28.9268C6.17216 31.1935 6.7355 33.1677 6.7355 33.3142C6.7355 33.4607 6.22631 33.5848 5.60397 33.589C3.30664 33.6058 2.02956 34.1187 2.36358 38.8117C2.67912 43.245 5.19403 48.5545 7.24332 52.2215C7.83357 53.2776 9.93252 55.7728 11.907 57.7657C15.123 61.0117 15.3606 61.3894 14.1946 61.3894C13.4787 61.3894 12.6114 61.7651 12.2665 62.2247C11.5319 63.2036 11.9122 65.9906 13.0405 67.895C13.7986 69.1746 13.8066 69.1756 26.3026 69.1756C26.3026 69.1756 37.8311 69.1155 38.5542 68.8418C39.2774 68.5679 39.7757 67.1129 39.7757 67.1129C40.2409 66.0288 40.5388 64.5559 40.5892 63.7281C40.6655 62.4743 40.4086 62.1347 39.0471 61.6914C38.1481 61.3987 38.4939 61.6699 38.2251 61.1721C38.283 60.7788 40.2728 58.2987 41.8738 57.0963C43.1181 56.1618 45.7049 52.5973 47.2029 49.4235C48.858 45.9168 49.8188 38.1379 49.2731 35.0858C49.0756 33.9814 49.4294 32.682 50.496 30.592C52.7437 26.1876 52.4208 23.3042 49.4921 21.6294C48.6843 21.1674 46.9935 20.7897 45.7351 20.7897C44.4767 20.7897 43.4475 20.5306 43.4475 20.2151C43.4475 19.8996 43.9046 18.139 44.4641 16.3024C45.0236 14.4658 45.8309 11.2983 46.2577 9.26351C46.6844 7.22869 47.2667 5.08154 47.5522 4.49161C47.9447 3.68061 47.8761 3.20299 47.2713 2.53419C46.1761 1.32301 45.817 1.90104 44.2195 7.44187C43.4699 10.0419 42.6848 12.5446 42.4751 13.0035C42.2653 13.4623 41.8129 15.2142 41.4693 16.8966C41.1256 18.579 40.5489 20.7063 40.1874 21.6239C39.826 22.5416 39.3691 24.1684 39.1728 25.239C38.556 28.6027 37.013 33.2653 36.4471 33.4739C35.4832 33.8292 36.1151 27.8668 37.4087 24.4048C37.6373 23.793 38.4258 21.04 39.161 18.287C39.8962 15.534 40.8507 12.0302 41.2817 10.5008C42.0741 7.6883 43.3968 1.95245 43.4298 1.18507C43.4396 0.955655 43.0237 0.767941 42.5065 0.767941ZM2.90773 11.9237C3.93514 11.8941 5.60889 11.9681 5.86425 12.0822C6.20473 12.2346 6.23852 12.2252 5.40873 12.2146C4.57894 12.2041 1.68371 12.131 2.17302 11.99C2.29535 11.9549 2.56526 11.9336 2.90773 11.9237ZM18.2807 12.2279C21.4488 12.2752 22.5891 12.5366 24.0827 13.5575C26.2001 15.0046 28.8633 18.7775 28.8633 20.3302C28.8633 21.1723 27.1805 22.4582 26.0786 22.4582C25.9665 22.4582 25.2957 21.057 24.5876 19.345C23.507 16.7324 23.1814 16.3415 22.5612 16.9107C21.5735 17.8173 21.6297 18.7474 22.8284 21.3459C24.0181 23.9249 24.0849 24.6828 23.1241 24.6828C22.7338 24.6828 21.8112 25.4749 21.0741 26.4437C19.9678 27.8977 19.7631 28.6497 19.8984 30.7539L20.0624 33.3033C19.7059 33.3222 17.5215 33.5741 15.0422 33.8682C18.9704 34.7266 23.4176 34.7925 21.0182 34.8024C22.1242 35.1626 20.5131 35.1526 18.0371 35.1532C18.5845 35.4463 21.0712 35.7933 29.7021 35.7973C38.3231 35.8016 45.7347 35.9571 46.1722 36.1428C48.0416 36.9361 46.2705 46.4222 43.363 51.1895C41.3956 54.4155 38.2025 57.3509 34.6015 59.2441C31.2902 60.985 25.2822 61.7598 21.8226 60.8919C13.5315 58.8119 50.5941 45.6322 48.0109 36.523C47.0448 33.1161 12.9462 35.1544 18.0371 35.1532C18.0176 35.1427 17.9801 35.132 17.9654 35.1217C16.6591 34.2083 10.7054 34.1803 7.2718 34.5458C4.0964 34.8839 22.0453 35.7589 27.1434 35.1542C25.2012 34.7298 11.2836 32.8284 10.4867 31.9248C7.71368 28.7807 6.34912 25.977 7.23447 21.3632C8.29598 15.8314 11.5273 13.5593 12.4639 17.6862C12.8243 19.2743 14.7061 19.9872 15.1513 18.7041C15.3205 18.2163 14.9458 16.8317 14.3193 15.6278C12.7704 12.6515 13.3508 12.1541 18.2807 12.2279ZM42.9966 23.5597C43.4768 23.5786 44.0052 23.9978 44.2018 24.6828C44.3774 25.2946 44.8728 25.7952 45.3029 25.7952C45.9411 25.7952 45.9699 25.9486 45.4591 26.6294C44.3817 28.0649 42.5955 27.6732 42.2953 25.9364C42.1502 25.0969 42.1367 24.221 42.2658 23.9898C42.4376 23.6824 42.7085 23.5489 42.9966 23.5597ZM30.8189 23.5702C31.0509 23.5702 31.8132 24.2027 32.5132 24.9769C34.1971 26.8391 34.6683 29.7137 33.6477 31.8963L32.86 33.5811H28.1246C23.8005 33.5811 23.3202 33.4734 22.6054 32.3449C21.1464 30.0412 22.0829 26.8056 23.8509 28.0423C24.2565 28.326 25.4314 28.5627 26.4617 28.5669C28.1965 28.5753 28.4115 28.3906 29.3662 26.0729C29.9332 24.6964 30.5869 23.5702 30.8189 23.5702ZM41.7836 32.4763C42.8805 32.4826 43.0274 32.6062 42.4417 33.0249C41.4754 33.7154 41.0674 33.7154 40.6815 33.0249C40.5021 32.7039 40.9683 32.4721 41.7836 32.4763ZM26.1336 64.726C36.6744 64.726 37.4744 64.7956 37.3173 65.6993C37.1636 66.5837 36.1818 66.6854 26.5776 66.8214C16.2277 66.9679 14.782 66.7659 14.782 65.1703C14.782 64.9255 19.8899 64.726 26.1336 64.726Z" fill="black"/>
<path d="M13.9181 34.0956C12.6487 33.7195 12.2203 33.5511 11.4605 33.1296C10.7625 32.7424 10.2012 32.1669 9.27619 30.8902C7.55849 28.5194 6.48744 26.5553 6.4884 24.012C6.48995 20.3662 8.34756 16.3984 10.0523 15.4478C11.0869 14.871 11.8935 15.5237 12.3657 17.3198C12.6186 18.2814 13.1045 18.8878 13.8098 19.1218C14.3029 19.2853 14.6797 19.2094 14.9604 18.8894C15.2257 18.5871 15.1739 18.2688 15.0795 17.687C14.9679 16.9987 14.6062 16.5338 14.0524 15.3138C13.2851 13.6236 13.4109 12.8305 13.8043 12.4111C14.08 12.1172 14.3477 11.9918 14.9592 11.8702C16.2075 11.6222 20.0348 11.6624 21.5242 11.939C23.206 12.2515 24.5612 13.1082 26.0765 14.8167C27.9511 16.9302 29.2977 19.4314 29.078 20.3914C29.0035 20.717 28.5177 21.3097 28.027 21.6739C27.5394 22.0357 26.8183 22.3599 26.501 22.3599C26.1907 22.3599 26.2534 23.469 24.4328 19.1847C23.8782 17.8796 23.3956 16.7405 23.0888 16.7405C22.7832 16.7405 22.5935 16.7729 22.2636 17.2592C22.0644 17.5528 22.0002 17.7506 22.027 18.2854C22.0633 19.0114 22.2529 19.598 23.1102 21.6377C24.1433 24.0958 24.1804 24.5887 23.3436 24.7394C23.161 24.7724 22.8678 24.8948 22.692 25.0112C22.2454 25.3074 21.0553 26.6902 20.6546 27.3785C19.9576 28.5759 19.8737 29.1693 20.0253 31.8265C20.0844 32.8639 20.1155 33.7323 20.0944 33.7564C20.0625 33.7925 16.864 34.1865 15.3272 34.3433C14.966 34.3801 14.7516 34.3428 13.9181 34.0956Z" fill="#FF8600"/>
<path d="M24.7448 33.8768C23.5441 33.7528 23.0887 33.5364 22.602 32.8584C21.6652 31.5532 21.3407 29.4113 21.8741 28.0541C22.2512 27.0946 22.8042 26.8847 23.6083 27.396C24.3182 27.8473 24.9276 27.972 26.4246 27.9722C27.6612 27.9725 27.7664 27.9596 28.0291 27.7841C28.4827 27.4803 28.7412 27.0088 29.4739 25.1498C30.1496 23.4354 30.7429 22.2126 30.9465 22.1147C31.089 22.0462 31.3572 22.2381 31.9396 22.8248C32.9166 23.8093 33.5213 24.7373 33.9547 25.9176C34.3901 27.1031 34.4651 27.5547 34.4658 28.9924C34.4663 30.5547 34.3885 30.9123 33.6602 32.6901L33.1553 33.9226L29.264 33.9331C27.1238 33.9373 25.0902 33.911 24.7448 33.8768Z" fill="#FF0000" stroke="#5B0000" stroke-width="0.0720787"/>
<path d="M16.6958 66.9881C15.6968 66.8004 14.7586 66.3699 14.4288 65.9476C14.1344 65.5707 13.8626 64.3622 14.0274 64.1631C14.4279 63.6795 19.1227 63.4194 27.5121 63.4161C37.62 63.4119 38.6475 63.5819 38.4367 65.2227C38.2841 66.4107 37.169 66.7447 32.4614 67.0121C28.5614 67.2338 17.918 67.2168 16.6958 66.9881Z" fill="#327349"/>
<path d="M7.21591 9.98803C5.34998 9.79675 3.82201 10.1791 2.31983 10.9439C0.936301 11.6483 1.00109 11.7791 0.978191 11.8151C0.837559 12.0363 0.862562 12.3256 1.08585 12.7254C1.21741 13.0056 2.31983 13.4472 2.31983 13.4472C8.66718 16.367 2.9737 13.3602 3.56378 13.8991C5.38187 14.5422 4.18233 14.2267 5.20643 14.716C6.37065 15.2722 6.24753 15.0502 6.38859 14.7838C6.88099 13.2892 6.65971 14.0908 6.96073 13.0828C7.25639 12.0927 7.27969 11.3274 7.27969 11.3274C7.27969 11.3274 7.33006 10.4275 7.27969 10.0608C7.26889 9.98265 7.21591 9.98803 7.21591 9.98803Z" fill="#008000"/>
<path d="M7.12024 12.4994C7.07273 12.4952 7.02413 12.5036 6.97672 12.4994C6.79928 12.4805 6.62668 12.4234 6.45042 12.3952C6.20765 12.3563 6.41777 12.3951 6.20323 12.3691C6.16847 12.3649 6.13443 12.3544 6.09957 12.3523C6.06513 12.3502 6.03023 12.3565 5.99592 12.3523C5.9607 12.3481 5.9273 12.3313 5.89226 12.3262C5.85802 12.3199 5.82315 12.3199 5.78861 12.3178C5.71949 12.3073 5.65025 12.2955 5.58128 12.2831C5.37985 12.2466 5.60251 12.2895 5.44572 12.2396C5.38961 12.2228 5.32738 12.227 5.27029 12.2136C5.21167 12.1988 5.15519 12.1844 5.09486 12.1789C5.02359 12.1726 4.95091 12.1852 4.87956 12.1789C4.80738 12.1726 4.7364 12.1579 4.66427 12.1528C4.54848 12.1444 4.42947 12.1528 4.3134 12.1528C4.19472 12.1528 4.07272 12.1633 3.95457 12.1528C3.93837 12.1517 3.92282 12.1465 3.90675 12.1444C3.86536 12.1402 3.82069 12.1444 3.77916 12.1444C3.64682 12.1444 3.51957 12.1486 3.38843 12.1612C3.36725 12.1633 3.34571 12.1591 3.32465 12.1612C3.31384 12.1629 3.30362 12.1696 3.29274 12.1696C3.23243 12.1759 3.16955 12.1612 3.10933 12.1696C3.10354 12.1702 3.0993 12.178 3.09332 12.178C3.06699 12.1822 3.04024 12.1844 3.01358 12.1865C2.97761 12.1886 2.92217 12.1759 2.88599 12.1949" fill="black"/>
<path d="M16.2896 35.1198C16.2483 35.1217 16.207 35.1261 16.1656 35.1261C14.7111 35.2032 13.2561 35.2741 11.8007 35.3147C10.6059 35.3466 9.41106 35.3643 8.21596 35.3586H6.01285C5.88258 35.3815 5.75173 35.3998 5.62242 35.4315C5.52219 35.4572 5.42117 35.4759 5.32056 35.4984C5.54839 42.7389 7.89891 49.5845 11.8819 54.6078C15.865 59.6311 21.1731 62.4442 26.6992 62.4605C31.9585 62.454 37.0326 59.9135 40.9568 55.3219C44.881 50.7303 47.3817 44.4079 47.9834 37.5565C47.7263 37.701 47.4693 37.8457 47.2055 37.969C46.5226 38.2894 45.8301 38.5746 45.1198 38.7619C44.5315 38.9254 43.9422 39.0843 43.3521 39.2352C42.6886 39.3805 42.0215 39.5004 41.3497 39.5468C40.6745 39.5943 39.9989 39.6023 39.323 39.5679C38.6395 39.5363 37.9579 39.468 37.2786 39.3579C36.6109 39.2591 35.9439 39.15 35.2792 39.0193C34.5781 38.8812 33.8787 38.7316 33.1831 38.549C32.556 38.3829 31.9289 38.216 31.3047 38.0307C30.6399 37.8506 29.9734 37.6781 29.3105 37.4854C28.6233 37.2855 27.9374 37.0781 27.2469 36.8992C26.6058 36.7336 25.9649 36.5661 25.3191 36.4369C24.6563 36.2941 23.9921 36.1667 23.3263 36.0524C22.6195 35.9271 21.9105 35.8256 21.2036 35.7009C20.5838 35.5887 19.9634 35.4876 19.34 35.4183C18.6747 35.3447 18.0095 35.2593 17.3436 35.1964C16.9925 35.1653 16.641 35.1444 16.2896 35.1198Z" fill="#327349" stroke="black" stroke-width="0.417811"/>
</svg>
