<?xml version="1.0" encoding="UTF-8" standalone="no"?>
<!-- Created with Inkscape (http://www.inkscape.org/) -->

<svg
   width="320"
   height="80"
   viewBox="0 0 84.666664 21.166667"
   version="1.1"
   id="svg1"
   xml:space="preserve"
   xmlns="http://www.w3.org/2000/svg"
   xmlns:svg="http://www.w3.org/2000/svg"><defs
     id="defs1" /><text
     xml:space="preserve"
     style="font-style:normal;font-variant:normal;font-weight:normal;font-stretch:normal;font-size:8.56148px;font-family:'Century Gothic';-inkscape-font-specification:'Century Gothic';fill:#000000;fill-opacity:1;stroke:none;stroke-width:0.133773"
     x="23.510452"
     y="17.537613"
     id="text32"><tspan
       id="tspan32"
       style="font-style:normal;font-variant:normal;font-weight:normal;font-stretch:normal;font-size:8.56148px;font-family:'Century Gothic';-inkscape-font-specification:'Century Gothic';fill:#000000;stroke-width:0.133773"
       x="23.510452"
       y="17.537613">PRATO<tspan
   style="font-style:normal;font-variant:normal;font-weight:bold;font-stretch:normal;font-family:'Century Gothic';-inkscape-font-specification:'Century Gothic Bold';fill:#327349;fill-opacity:1;stroke-width:0.133773"
   id="tspan33">CERTO</tspan></tspan></text><g
     id="g53"
     style="display:inline"
     transform="matrix(0.50560019,0,0,0.50560019,-10.888889,-47.3433)"><path
       d="m 59.645635,97.809017 c -0.360819,0 -0.574452,0.326722 -0.822413,1.256771 -0.184288,0.691229 -0.42094,1.375832 -0.52553,1.521352 -0.10459,0.14552 -0.268671,0.68131 -0.364613,1.19063 -0.09594,0.50933 -0.336149,1.34275 -0.534186,1.85208 -0.198036,0.50932 -0.612071,1.78924 -0.920186,2.84427 -0.314429,1.07664 -0.705711,1.91823 -0.89167,1.91823 -0.559633,0 -1.574279,-1.13354 -2.212623,-2.47168 -0.735149,-1.54108 -2.620944,-3.12911 -4.446634,-3.74448 -1.023281,-0.3449 -1.692011,-0.39483 -3.068646,-0.22892 -0.968204,0.11669 -1.870754,0.21562 -2.005365,0.21962 -0.134609,0.004 -0.609163,-0.67654 -1.054623,-1.51257 -1.039107,-1.950188 -1.336318,-2.261269 -1.754821,-1.836579 -0.2482,0.25188 -0.243335,0.506296 0.02241,1.177706 0.701796,1.773243 0.69994,1.782323 -0.356972,1.782323 -1.074694,0 -2.998882,0.96085 -2.998882,1.49758 0,0.4561 1.001944,1.09994 2.039484,1.31051 0.461539,0.0937 0.893877,0.26044 0.960925,0.37052 0.06705,0.11008 -0.784718,0.81442 -0.825978,1.97404 0,0 -0.111157,2.11469 -0.0881,2.31201 0.133173,0.0676 0.654366,1.96267 0.654366,1.96267 0.356706,1.07832 0.648765,2.01751 0.648765,2.08721 0,0.0697 -0.263987,0.12874 -0.586638,0.13074 -1.191042,0.008 -1.853136,0.25201 -1.679965,2.4846 0.163591,2.10906 1.467435,4.63497 2.529877,6.37946 0.306016,0.50246 1.3942,1.68949 2.417845,2.63756 1.667341,1.54425 1.790538,1.72393 1.186006,1.72393 -0.371147,0 -0.820813,0.17875 -0.999626,0.39739 -0.38084,0.46567 -0.183683,1.79154 0.401276,2.69751 0.393068,0.60877 0.397213,0.60927 6.875682,0.60927 0,0 5.976883,-0.0286 6.3518,-0.15884 0.374917,-0.13026 0.633281,-0.8225 0.633281,-0.8225 0.241154,-0.51571 0.395598,-1.21644 0.421731,-1.61024 0.03959,-0.59646 -0.0936,-0.75804 -0.799497,-0.96893 -0.466052,-0.13924 -0.286813,-0.0102 -0.426167,-0.24704 0.03004,-0.1871 1.061636,-1.36699 1.891643,-1.93898 0.64513,-0.44459 1.98622,-2.14033 2.762856,-3.65019 0.8581,-1.66825 1.356231,-5.36895 1.073305,-6.8209 -0.102385,-0.52543 0.08103,-1.14357 0.633998,-2.13785 1.165295,-2.09532 0.99789,-3.46706 -0.520438,-4.26382 -0.418829,-0.21979 -1.295398,-0.39946 -1.947821,-0.39946 -0.652422,0 -1.186007,-0.12326 -1.186007,-0.27337 0,-0.15011 0.237002,-0.98764 0.527057,-1.86139 0.290057,-0.87375 0.708633,-2.3806 0.929863,-3.34863 0.221229,-0.96803 0.523156,-1.989495 0.67117,-2.270145 0.203476,-0.38582 0.167896,-0.61304 -0.14564,-0.931209 -0.567807,-0.5762 -0.753995,-0.301207 -1.582192,2.334744 -0.388632,1.23693 -0.795641,2.42754 -0.9044,2.64583 -0.108757,0.21828 -0.343295,1.05171 -0.521455,1.85208 -0.178161,0.80036 -0.47718,1.8124 -0.664552,2.24896 -0.187369,0.43656 -0.424251,1.21047 -0.526038,1.71979 -0.319799,1.60023 -1.119746,3.81839 -1.413125,3.91759 -0.499739,0.16904 -0.172119,-2.66746 0.49854,-4.31446 0.118513,-0.29104 0.527331,-1.60073 0.908474,-2.91042 0.381142,-1.30969 0.876034,-2.97656 1.099437,-3.70416 0.410812,-1.33798 1.096607,-4.066706 1.113695,-4.431776 0.0051,-0.109139 -0.210516,-0.198437 -0.47868,-0.198437 z m -20.529781,5.307173 c 0.532656,-0.0141 1.400405,0.0211 1.532795,0.0754 v -5.1e-4 c 0.176522,0.0725 0.194035,0.0685 -0.236165,0.0635 -0.4302,-0.005 -1.931217,-0.0398 -1.677537,-0.10689 0.06342,-0.0167 0.203355,-0.0268 0.380907,-0.0315 z m 7.970026,0.14469 c 1.642523,0.0225 2.233683,0.14686 3.008047,0.63252 1.097724,0.68847 2.478443,2.48332 2.478443,3.22203 0,0.40058 -0.872413,1.01234 -1.443679,1.01234 -0.05816,0 -0.405901,-0.66658 -0.773018,-1.48105 -0.560226,-1.24292 -0.729036,-1.42885 -1.05055,-1.15807 -0.512102,0.43129 -0.48296,0.87375 0.138511,2.10995 0.616799,1.2269 0.651413,1.5875 0.153281,1.5875 -0.202354,0 -0.680635,0.37682 -1.062773,0.83768 -0.57358,0.69173 -0.679705,1.04948 -0.609554,2.05052 l 0.08504,1.21284 c -0.184835,0.009 -1.317326,0.1288 -2.602696,0.26872 2.036522,0.40839 4.342148,0.43973 3.098181,0.44442 0.573423,0.17136 -0.261836,0.16664 -1.545526,0.16691 0.283809,0.13944 1.573052,0.30451 6.047666,0.30644 4.46953,0.002 8.312013,0.076 8.538841,0.16433 0.969199,0.37742 0.05096,4.89028 -1.45641,7.15822 -1.020011,1.5347 -2.675454,2.93117 -4.54237,3.83181 -1.716701,0.82821 -4.831545,1.19682 -6.625138,0.78393 -4.298482,-0.98952 14.916455,-7.25954 13.577205,-11.59309 -0.500877,-1.62074 -18.179132,-0.65108 -15.539794,-0.65164 -0.01011,-0.005 -0.02954,-0.0101 -0.03717,-0.015 -0.677256,-0.43451 -3.763884,-0.44785 -5.544033,-0.27394 -1.646272,0.16084 7.659223,0.5771 10.302319,0.28944 -1.006931,-0.20193 -8.222422,-1.10646 -8.635595,-1.53634 -1.437634,-1.49578 -2.14508,-2.82958 -1.686075,-5.0245 0.550335,-2.63164 2.225582,-3.71257 2.711163,-1.74925 0.186849,0.75548 1.162438,1.09464 1.393266,0.48421 0.08775,-0.23205 -0.106504,-0.89075 -0.431322,-1.46348 -0.803018,-1.41591 -0.502123,-1.65257 2.053742,-1.61747 z m 12.813862,5.39089 c 0.248963,0.009 0.522898,0.20842 0.624831,0.53433 0.09102,0.29104 0.347856,0.52917 0.570852,0.52917 0.33084,0 0.345815,0.073 0.08096,0.39687 -0.558534,0.68294 -1.484592,0.49659 -1.640243,-0.32969 -0.07523,-0.39936 -0.08225,-0.81608 -0.01527,-0.92605 0.08907,-0.14625 0.229492,-0.20977 0.37887,-0.20463 z m -6.313486,0.005 c 0.120261,0 0.515503,0.30092 0.878429,0.66921 0.873,0.88591 1.117282,2.25346 0.588165,3.29179 l -0.408406,0.8015 h -2.455018 c -2.24181,0 -2.490823,-0.0512 -2.861387,-0.58807 -0.756448,-1.09595 -0.270912,-2.63521 0.645709,-2.04691 0.21029,0.13497 0.819377,0.2476 1.353545,0.2496 0.899396,0.004 1.010839,-0.0839 1.505805,-1.18649 0.293968,-0.65484 0.632896,-1.19063 0.753158,-1.19063 z m 5.684582,4.23695 c 0.568675,0.003 0.644856,0.0618 0.341187,0.26097 -0.500932,0.32851 -0.712473,0.32851 -0.912547,0 -0.093,-0.1527 0.148699,-0.26297 0.57136,-0.26097 z m -8.11363,15.34222 c 5.464824,0 5.879578,0.0331 5.798142,0.46302 -0.07969,0.42072 -0.588728,0.46912 -5.567968,0.53382 -5.365851,0.0697 -6.115395,-0.0264 -6.115395,-0.78548 0,-0.11646 2.648201,-0.21136 5.885221,-0.21136 z"
       id="path8"
       style="display:inline;stroke-width:0.993;stroke-dasharray:none" /><path
       style="fill:#ff8600;fill-opacity:1;stroke:none;stroke-width:0.034745"
       d="m 44.824165,113.66406 c -0.658121,-0.17892 -0.880221,-0.25904 -1.274146,-0.45956 -0.361859,-0.1842 -0.652889,-0.458 -1.132453,-1.06537 -0.890534,-1.12787 -1.445814,-2.06223 -1.445314,-3.27216 7.99e-4,-1.73445 0.963873,-3.62206 1.847707,-4.07425 0.536345,-0.27441 0.954515,0.0361 1.199364,0.89054 0.131098,0.45748 0.383002,0.74593 0.748666,0.85726 0.255671,0.0778 0.450987,0.0417 0.596536,-0.11055 0.137514,-0.14381 0.110665,-0.29524 0.06174,-0.57201 -0.05788,-0.32746 -0.245389,-0.54864 -0.53251,-1.129 -0.39781,-0.80409 -0.332577,-1.1814 -0.128624,-1.38092 0.142949,-0.13984 0.281715,-0.19947 0.598766,-0.2573 0.647198,-0.11801 2.631403,-0.0989 3.403584,0.0327 0.871901,0.14866 1.574513,0.55622 2.360135,1.36901 0.971855,1.00545 1.670025,2.19535 1.556098,2.65208 -0.03864,0.15489 -0.290464,0.43687 -0.544891,0.61013 -0.252773,0.17213 -0.626645,0.32636 -0.79112,0.32636 -0.160874,0 -0.128394,0.52762 -1.072265,-1.51055 -0.287532,-0.62087 -0.53776,-1.16279 -0.696795,-1.16279 -0.15846,0 -0.256769,0.0154 -0.427811,0.24674 -0.103265,0.13969 -0.136579,0.2338 -0.122689,0.48821 0.01883,0.34538 0.11712,0.62446 0.561574,1.5948 0.535652,1.16942 0.554879,1.40388 0.121028,1.4756 -0.09467,0.0157 -0.246676,0.0739 -0.337816,0.12929 -0.231562,0.14091 -0.848554,0.79875 -1.056273,1.1262 -0.361342,0.56963 -0.404872,0.85192 -0.326289,2.11607 0.03067,0.49349 0.0468,0.90663 0.03585,0.91808 -0.01653,0.0172 -1.674798,0.20462 -2.471538,0.27921 -0.187243,0.0175 -0.298411,-2.7e-4 -0.730511,-0.11788 z"
       id="path6" /><path
       style="fill:#ff0000;fill-opacity:1;stroke:#5b0000;stroke-width:0.0377192;stroke-opacity:1"
       d="m 50.437151,113.55995 c -0.622491,-0.059 -0.858584,-0.16193 -1.110905,-0.48449 -0.485674,-0.62089 -0.653938,-1.63988 -0.377397,-2.28553 0.195531,-0.45649 0.482195,-0.55633 0.899112,-0.3131 0.368049,0.21471 0.683975,0.27403 1.460093,0.27415 0.641098,1e-4 0.695625,-0.006 0.831817,-0.0895 0.235171,-0.14456 0.369221,-0.36884 0.749077,-1.25324 0.350297,-0.81559 0.657891,-1.39733 0.763445,-1.44389 0.07389,-0.0326 0.212943,0.0587 0.514869,0.33782 0.506533,0.46835 0.820016,0.90985 1.044743,1.47137 0.225709,0.56397 0.264618,0.77881 0.264946,1.46278 2.76e-4,0.74322 -0.04004,0.91335 -0.417627,1.75908 l -0.26179,0.58635 -2.017409,0.005 c -1.109573,0.002 -2.163912,-0.01 -2.342974,-0.0263 z"
       id="path7" /><path
       style="fill:#327349;fill-opacity:1;stroke:none;stroke-width:0.067371"
       d="m 46.264218,129.31206 c -0.517889,-0.0893 -1.004306,-0.29406 -1.175328,-0.49498 -0.152598,-0.17929 -0.293503,-0.75423 -0.208053,-0.84893 0.207623,-0.23009 2.64159,-0.35382 6.991072,-0.35539 5.240369,-0.002 5.773054,0.0789 5.663806,0.85946 -0.07911,0.56516 -0.657272,0.72405 -3.097911,0.85129 -2.021905,0.10546 -7.539944,0.0977 -8.173586,-0.0111 z"
       id="path27" /><path
       style="fill:#008000;fill-opacity:1;stroke:none;stroke-width:0.264583"
       d="m 41.349414,102.19531 c -0.967383,-0.091 -1.759547,0.0909 -2.538347,0.45475 -0.717282,0.33508 -0.683692,0.39731 -0.695564,0.41445 -0.07291,0.10524 -0.05995,0.24287 0.05581,0.43304 0.06821,0.13333 0.639752,0.3434 0.639752,0.3434 3.290755,1.38906 0.338998,-0.0414 0.644923,0.21497 0.942577,0.30593 0.320687,0.15588 0.851627,0.38862 0.603581,0.26461 0.53975,0.15901 0.612883,0.0323 0.255281,-0.71106 0.140559,-0.32969 0.296622,-0.80925 0.153282,-0.47101 0.165364,-0.83509 0.165364,-0.83509 0,0 0.02611,-0.4281 0,-0.60255 -0.0056,-0.0372 -0.03307,-0.0346 -0.03307,-0.0346 z"
       id="path29" /><path
       style="fill:#000000;fill-opacity:1;stroke:none;stroke-width:0.264583"
       d="m 41.270864,103.46862 -1.781802,-0.30179 z"
       id="path30" /><path
       style="fill:#000000;fill-opacity:1;stroke:none;stroke-width:0.264583"
       d="m 41.299804,103.39007 c -0.02463,-0.002 -0.04983,0.002 -0.07441,0 -0.09199,-0.009 -0.18147,-0.0362 -0.272851,-0.0496 -0.125865,-0.0185 -0.01693,-4e-5 -0.128159,-0.0124 -0.01802,-0.002 -0.03567,-0.007 -0.05374,-0.008 -0.01786,-0.001 -0.03595,0.002 -0.05374,0 -0.01826,-0.002 -0.03557,-0.01 -0.05374,-0.0124 -0.01775,-0.003 -0.03583,-0.003 -0.05374,-0.004 -0.03583,-0.005 -0.07173,-0.0106 -0.107487,-0.0165 -0.104431,-0.0174 0.01101,0.003 -0.07028,-0.0207 -0.02909,-0.008 -0.06135,-0.006 -0.09095,-0.0124 -0.03039,-0.007 -0.05967,-0.0139 -0.09095,-0.0165 -0.03695,-0.003 -0.07463,0.003 -0.111622,0 -0.03742,-0.003 -0.07422,-0.01 -0.11162,-0.0124 -0.06003,-0.004 -0.121727,0 -0.181901,0 -0.06153,0 -0.124783,0.005 -0.186037,0 -0.0084,-5.2e-4 -0.01646,-0.003 -0.02479,-0.004 -0.02146,-0.002 -0.04462,0 -0.06615,0 -0.06861,0 -0.134583,0.002 -0.20257,0.008 -0.01098,0.001 -0.02215,-10e-4 -0.03307,0 -0.0056,8e-4 -0.0109,0.004 -0.01654,0.004 -0.03127,0.003 -0.06387,-0.004 -0.09509,0 -0.003,2.6e-4 -0.0052,0.004 -0.0083,0.004 -0.01365,0.002 -0.02752,0.003 -0.04134,0.004 -0.01865,0.001 -0.04739,-0.005 -0.06615,0.004"
       id="path31" /><path
       id="path36"
       style="display:inline;fill:#327349;fill-opacity:1;stroke:#000000;stroke-width:0.218643;stroke-dasharray:none;stroke-opacity:1"
       d="m 46.053606,114.1513 c -0.02143,9.1e-4 -0.04285,0.003 -0.06428,0.003 -0.754101,0.0367 -1.508427,0.0704 -2.26296,0.0897 -0.619459,0.0152 -1.238911,0.0236 -1.858503,0.0209 H 40.72567 c -0.06754,0.0109 -0.135374,0.0196 -0.202418,0.0347 -0.05196,0.0122 -0.10434,0.0211 -0.156501,0.0318 a 11.118112,13.378339 0 0 0 11.083674,12.82675 11.118112,13.378339 0 0 0 11.034693,-11.84761 c -0.13332,0.0687 -0.266569,0.13755 -0.403307,0.1962 -0.354052,0.15242 -0.713072,0.28811 -1.081351,0.37722 -0.304989,0.0778 -0.61048,0.1534 -0.916434,0.22518 -0.343977,0.0691 -0.689835,0.12615 -1.038115,0.14824 -0.350103,0.0226 -0.700332,0.0264 -1.05074,0.01 -0.354369,-0.015 -0.707771,-0.0475 -1.059925,-0.0999 -0.34617,-0.047 -0.691951,-0.0989 -1.036583,-0.16105 -0.363463,-0.0657 -0.726076,-0.13688 -1.08671,-0.22377 -0.325125,-0.079 -0.650221,-0.15838 -0.973829,-0.24655 -0.344669,-0.0857 -0.690217,-0.16774 -1.033904,-0.25941 -0.356297,-0.0951 -0.711903,-0.19377 -1.069873,-0.27888 -0.332359,-0.0788 -0.664647,-0.15847 -0.999468,-0.21996 -0.343589,-0.0679 -0.687974,-0.12853 -1.033139,-0.18288 -0.366433,-0.0596 -0.734019,-0.10791 -1.100485,-0.16723 -0.321347,-0.0534 -0.642976,-0.10149 -0.966178,-0.13447 -0.344941,-0.035 -0.689792,-0.0756 -1.035052,-0.10552 -0.182011,-0.0148 -0.36425,-0.0249 -0.546416,-0.0366 z" /></g><g
     id="g52"
     style="display:inline;stroke:#000000;stroke-width:0.5;stroke-dasharray:none;stroke-opacity:1"
     transform="matrix(0.50560019,0,0,0.50560019,-18.125182,-40.642101)"><path
       style="fill:#800080;stroke:#000000;stroke-width:0.5;stroke-dasharray:none;stroke-opacity:1"
       d="m 73.629061,103.54728 c -0.54054,-0.0741 -1.09297,-0.45048 -1.36587,-0.9305 -0.0857,-0.15073 -0.24357,-0.60246 -0.21763,-0.6227 0.006,-0.005 0.10832,-0.032 0.22701,-0.0605 0.68279,-0.16372 1.31303,-0.70781 1.5272,-1.31842 l 0.0391,-0.11153 0.23421,-0.0167 c 0.12881,-0.009 0.25652,-0.0256 0.28379,-0.0365 0.0386,-0.0154 0.0647,0.0205 0.11788,0.16282 0.18437,0.49298 0.67239,0.99744 1.15823,1.19724 0.0762,0.0313 0.13831,0.0708 0.13812,0.0878 -2.3e-4,0.017 -0.021,0.11839 -0.0462,0.22541 -0.21959,0.93145 -1.13768,1.55509 -2.09584,1.42367 z m -2.10017,-1.88672 c -0.607,-0.0608 -1.16994,-0.4601 -1.4573,-1.03375 -0.24477,-0.48862 -0.25125,-1.132206 -0.0164,-1.628626 0.10849,-0.22933 0.33175,-0.51899 0.49767,-0.64568 l 0.13816,-0.10549 0.15403,0.078 c 0.18369,0.0931 0.57369,0.19733 0.73821,0.19733 0.10374,0 0.11988,0.0101 0.13522,0.0848 0.0925,0.45045 0.20387,0.71699 0.423,1.01254 0.25773,0.347597 0.66402,0.639156 1.05394,0.756316 0.36078,0.1084 0.33722,0.0765 0.22456,0.3044 -0.0653,0.13211 -0.17787,0.27975 -0.33035,0.43327 -0.43056,0.43349 -0.93336,0.60967 -1.56073,0.54685 z m 4.78231,0.002 c -0.4305,-0.0403 -0.79291,-0.21745 -1.12548,-0.55015 -0.15589,-0.15594 -0.2634,-0.29694 -0.32933,-0.43191 -0.15868,-0.32482 -0.15878,-0.32288 0.021,-0.41319 0.61585,-0.309329 1.06554,-0.900316 1.17518,-1.544466 l 0.0367,-0.2158 0.33592,0.0105 c 0.39066,0.0122 0.6821,-0.0414 0.97233,-0.17862 l 0.18967,-0.0897 0.13677,0.10444 c 0.0752,0.0574 0.19988,0.18837 0.277,0.29098 0.67235,0.89441 0.46645,2.108026 -0.46343,2.731596 -0.33701,0.22599 -0.77605,0.3285 -1.22639,0.28635 z m -2.80546,-1.52615 c -0.33456,-0.071 -0.63417,-0.230349 -0.88862,-0.472606 -0.25012,-0.23814 -0.39146,-0.45316 -0.49996,-0.76063 -0.10168,-0.28814 -0.0997,-0.37454 0.009,-0.39728 0.72842,-0.15243 1.2301,-0.51061 1.57448,-1.12412 l 0.0952,-0.16956 0.34153,0.002 0.34154,0.002 0.13424,0.22887 c 0.22307,0.38031 0.62588,0.7402 1.00469,0.89762 0.18018,0.0749 0.18276,0.0872 0.0923,0.44076 -0.13139,0.51373 -0.48553,0.95071 -0.96003,1.184607 -0.42461,0.209309 -0.80594,0.260679 -1.24435,0.167639 z m -2.05014,-1.943546 c -0.3361,-0.0563 -0.74433,-0.26856 -0.99424,-0.51704 -0.38486,-0.38266 -0.56199,-0.80573 -0.56199,-1.34224 0,-0.53601 0.17716,-0.95961 0.56095,-1.34121 0.33379,-0.3319 0.73363,-0.50324 1.2393,-0.53108 0.30714,-0.0169 0.32001,-0.0151 0.29615,0.041 -0.0526,0.12356 -0.0549,0.7897 -0.004,1.00876 0.107,0.45654 0.38642,0.90832 0.74445,1.20363 0.18363,0.15147 0.6055,0.38966 0.69014,0.38966 0.0617,0 0.0326,0.0856 -0.0927,0.27325 -0.25748,0.38557 -0.68502,0.68156 -1.13907,0.78857 -0.1851,0.0436 -0.55799,0.0571 -0.73944,0.0267 z m 4.60935,-0.0264 c -0.44518,-0.11256 -0.87944,-0.41901 -1.12388,-0.79311 -0.12628,-0.19327 -0.15229,-0.26903 -0.0924,-0.26903 0.018,0 0.13455,-0.0496 0.259,-0.11033 0.57925,-0.28246 1.01775,-0.83703 1.17319,-1.48376 0.0411,-0.17092 0.0499,-0.30609 0.0384,-0.58576 -0.008,-0.19996 -0.0261,-0.38995 -0.0398,-0.4222 -0.0237,-0.0561 -0.0108,-0.0579 0.2963,-0.041 0.50541,0.0278 0.91577,0.20379 1.2438,0.53333 0.38032,0.38209 0.55645,0.80591 0.55645,1.33896 0,0.24811 -0.0159,0.3741 -0.068,0.53951 -0.18743,0.59438 -0.62343,1.03729 -1.23305,1.25259 -0.23957,0.0846 -0.75446,0.10539 -1.01007,0.0408 z m -2.21191,-1.2791 c -0.39899,-0.0617 -0.79747,-0.27857 -1.09298,-0.59485 -0.54119,-0.57922 -0.65403,-1.44378 -0.28158,-2.15748 0.13955,-0.26741 0.53472,-0.65456 0.79777,-0.78157 0.32409,-0.1565 0.53225,-0.20488 0.87756,-0.20398 0.2603,6.8e-4 0.35031,0.0151 0.5717,0.0914 1.30173,0.44869 1.7183,2.05802 0.78991,3.05165 -0.0986,0.10548 -0.25748,0.24375 -0.35317,0.30727 -0.35098,0.23296 -0.89279,0.35198 -1.30921,0.28758 z m -1.57449,-3.29838 c -0.0437,-0.0344 -0.0882,-0.0901 -0.0989,-0.12383 -0.0107,-0.0338 -0.0725,-0.0884 -0.13739,-0.12153 -0.0648,-0.0331 -0.15055,-0.10303 -0.19044,-0.15543 -0.0399,-0.0524 -0.15107,-0.17423 -0.24706,-0.27074 -0.1297,-0.1304 -0.18035,-0.20664 -0.19719,-0.29683 -0.0167,-0.0894 -0.0647,-0.16246 -0.18232,-0.27746 -0.1645,-0.16084 -0.26294,-0.36683 -0.26294,-0.55022 0,-0.0527 -0.034,-0.13057 -0.0817,-0.18719 -0.10721,-0.12715 -0.16489,-0.26925 -0.16489,-0.40627 0,-0.061 -0.0171,-0.14122 -0.038,-0.17826 -0.0209,-0.037 -0.0485,-0.17832 -0.0613,-0.31397 -0.0128,-0.13565 -0.0315,-0.3241 -0.0416,-0.41878 -0.013,-0.12194 -0.004,-0.20591 0.03,-0.28796 0.0343,-0.0821 0.0395,-0.13236 0.018,-0.17266 -0.0469,-0.0876 -0.0386,-0.1339 0.0781,-0.43242 0.1144,-0.29275 0.19978,-0.64132 0.19978,-0.8156 0,-0.0572 0.0111,-0.1109 0.0246,-0.11926 0.0135,-0.008 0.11962,0.0326 0.23577,0.0911 0.21401,0.10771 0.61223,0.23973 0.83005,0.27518 0.0766,0.0125 0.1583,0.0573 0.22824,0.12523 0.0599,0.0582 0.13392,0.10581 0.16443,0.10581 0.13108,0 0.3975,0.17854 0.3975,0.26637 0,0.0215 0.0482,0.0619 0.10718,0.0899 0.10091,0.0479 0.32419,0.26409 0.32464,0.31437 1.2e-4,0.0127 0.0481,0.0557 0.10673,0.0956 0.0959,0.0653 0.26302,0.33255 0.26302,0.42064 0,0.0187 0.0731,0.10964 0.1625,0.20204 0.16627,0.17191 0.23828,0.32942 0.23828,0.52122 0,0.0687 0.0327,0.13768 0.10608,0.22336 0.10182,0.11896 0.19471,0.39352 0.15491,0.45792 -0.009,0.0151 0.008,0.0653 0.0383,0.11167 0.039,0.0595 0.056,0.1483 0.058,0.30146 0.002,0.11944 0.02,0.25878 0.041,0.30965 0.0222,0.0536 0.0303,0.14266 0.0194,0.21196 -0.0338,0.21444 -0.0474,0.22392 -0.34864,0.24343 -0.1501,0.01 -0.3623,0.0408 -0.47156,0.069 -0.37806,0.0978 -0.8308,0.37007 -1.05948,0.63724 -0.11615,0.1357 -0.13526,0.14004 -0.24303,0.0553 z m 2.96904,-0.45942 c -0.12265,-0.0735 -0.37484,-0.18276 -0.53256,-0.23082 -0.0435,-0.0132 -0.0498,-0.0342 -0.0308,-0.10213 0.0466,-0.16693 -0.009,-0.9508 -0.0788,-1.11824 -0.0178,-0.0424 -0.0407,-0.1395 -0.0509,-0.21581 -0.0102,-0.0763 -0.0524,-0.20116 -0.0939,-0.27746 -0.12623,-0.23259 -0.16076,-0.31693 -0.19992,-0.48827 -0.0367,-0.16056 -0.0354,-0.16769 0.0543,-0.29288 0.0506,-0.0706 0.15817,-0.17903 0.23915,-0.24101 0.081,-0.062 0.18533,-0.17389 0.23188,-0.24869 0.0953,-0.15306 0.23133,-0.27711 0.39627,-0.36129 0.0613,-0.0313 0.13924,-0.0881 0.17315,-0.12622 0.0628,-0.0706 0.337,-0.21386 0.4103,-0.21441 0.0222,-1.6e-4 0.096,-0.045 0.16391,-0.0996 0.1083,-0.087 0.15095,-0.10077 0.34502,-0.1112 0.14118,-0.008 0.24093,-0.0291 0.27518,-0.0594 0.0603,-0.0534 0.10433,-0.0545 0.87462,-0.0221 l 0.52757,0.0222 -0.11957,0.20427 c -0.15266,0.26078 -0.22996,0.46787 -0.2578,0.69064 -0.0158,0.1263 -0.0476,0.20904 -0.11101,0.28886 -0.0501,0.0631 -0.0889,0.14948 -0.0889,0.19811 0,0.11681 -0.0512,0.244 -0.13563,0.33689 -0.0385,0.0424 -0.0939,0.14188 -0.12298,0.22109 -0.0291,0.0792 -0.0745,0.16189 -0.1008,0.18374 -0.0263,0.0219 -0.0791,0.10965 -0.11735,0.19511 -0.0382,0.0855 -0.12692,0.20796 -0.19714,0.27223 -0.0702,0.0643 -0.12766,0.13766 -0.12766,0.16308 0,0.0935 -0.12464,0.28634 -0.26493,0.40982 -0.0793,0.0698 -0.17573,0.19501 -0.21429,0.27822 -0.0386,0.0832 -0.11328,0.18323 -0.16606,0.22225 -0.0528,0.039 -0.12273,0.11632 -0.15546,0.17179 -0.0327,0.0555 -0.11513,0.13934 -0.18313,0.18639 -0.068,0.0471 -0.12417,0.10024 -0.12482,0.1182 -7e-4,0.018 -0.0185,0.0545 -0.0397,0.0812 -0.0345,0.0434 -0.0531,0.0398 -0.17727,-0.0345 z"
       id="path35" /><path
       id="path35-3"
       style="fill:#008000;fill-opacity:1;stroke:#000000;stroke-width:0.5;stroke-dasharray:none;stroke-opacity:1"
       d="m 70.996103,88.469146 c -0.0135,0.008 -0.02429,0.0622 -0.02429,0.11937 0,0.17428 -0.08559,0.52271 -0.199988,0.81546 -0.116693,0.29851 -0.124937,0.34493 -0.07803,0.43253 0.0215,0.0403 0.01621,0.0905 -0.01809,0.1726 -0.034,0.082 -0.04297,0.16589 -0.02997,0.28784 0.0101,0.0947 0.02854,0.28293 0.04134,0.41857 0.0128,0.13565 0.04059,0.2772 0.06149,0.3142 0.0209,0.037 0.03824,0.11728 0.03824,0.17828 0,0.13702 0.05764,0.27903 0.164847,0.40618 0.0477,0.0566 0.08165,0.13437 0.08165,0.18707 0,0.18339 0.09853,0.38952 0.263033,0.55036 0.11762,0.115 0.165201,0.1881 0.181901,0.2775 0.01684,0.0902 0.0677,0.16623 0.197404,0.29662 0.09599,0.0965 0.207114,0.21839 0.247014,0.27079 0.03989,0.0524 0.125886,0.12244 0.190686,0.15554 0.06489,0.0331 0.126759,0.0876 0.137459,0.12144 0.0107,0.0337 0.055,0.0896 0.0987,0.12402 0.10777,0.0847 0.126729,0.0804 0.242879,-0.0553 0.22868,-0.26716 0.681824,-0.53937 1.059884,-0.63717 0.10926,-0.0282 0.321189,-0.0593 0.471289,-0.0693 0.30124,-0.0195 0.315016,-0.029 0.348816,-0.24339 0.0109,-0.0693 0.0026,-0.15827 -0.01964,-0.21187 -0.021,-0.0509 -0.03883,-0.19011 -0.04082,-0.30955 -0.002,-0.15316 -0.01888,-0.24229 -0.05788,-0.30179 -0.0303,-0.0464 -0.04776,-0.0965 -0.03876,-0.11162 0.0398,-0.0644 -0.05269,-0.3389 -0.154512,-0.45786 -0.07338,-0.0857 -0.106454,-0.15454 -0.106454,-0.22324 0,-0.19179 -0.07196,-0.3495 -0.238228,-0.52141 -0.0894,-0.0924 -0.162264,-0.18336 -0.162264,-0.20206 0,-0.0881 -0.167133,-0.35534 -0.263033,-0.42064 -0.05863,-0.0399 -0.10685,-0.0829 -0.10697,-0.0956 -4.5e-4,-0.0503 -0.223618,-0.2663 -0.324528,-0.3142 -0.05898,-0.028 -0.10697,-0.0684 -0.10697,-0.0899 0,-0.0878 -0.266312,-0.26613 -0.397392,-0.26613 -0.03051,0 -0.104948,-0.0477 -0.164848,-0.10594 -0.06994,-0.0679 -0.151293,-0.11255 -0.227893,-0.12505 -0.21782,-0.0354 -0.616437,-0.16773 -0.83044,-0.27544 -0.11615,-0.0585 -0.222145,-0.099 -0.235645,-0.0909 z m 5.795512,0.43822 c -0.114831,0.003 -0.140899,0.0167 -0.171049,0.0434 -0.03425,0.0303 -0.133739,0.0514 -0.274919,0.0594 -0.194063,0.0104 -0.236898,0.0241 -0.345198,0.1111 -0.06791,0.0546 -0.141614,0.0991 -0.163814,0.0992 -0.0733,5.5e-4 -0.347511,0.14386 -0.410311,0.21446 -0.03391,0.0381 -0.111816,0.0953 -0.173116,0.12661 -0.16494,0.0842 -0.301059,0.20815 -0.396359,0.36121 -0.04655,0.0748 -0.151027,0.18657 -0.232027,0.24857 -0.08098,0.062 -0.188145,0.17021 -0.238745,0.24081 -0.0897,0.12519 -0.09096,0.13244 -0.05426,0.293 0.03916,0.17134 0.07324,0.25576 0.199471,0.48835 0.0415,0.0763 0.08385,0.2012 0.09405,0.2775 0.0102,0.0763 0.03336,0.17361 0.05116,0.21601 0.0698,0.16744 0.125136,0.95083 0.07855,1.11776 -0.019,0.0679 -0.01249,0.0891 0.03101,0.10232 0.15772,0.0481 0.409617,0.1575 0.532267,0.231 0.12417,0.0743 0.14275,0.078 0.17725,0.0346 0.0212,-0.0267 0.03909,-0.0631 0.03979,-0.0811 6.5e-4,-0.018 0.05706,-0.0712 0.125057,-0.11834 0.068,-0.047 0.150235,-0.13105 0.182935,-0.18655 0.03273,-0.0555 0.102746,-0.13257 0.155546,-0.17157 0.05278,-0.039 0.127281,-0.13901 0.165881,-0.22221 0.03856,-0.0832 0.135157,-0.20874 0.214457,-0.27854 0.14029,-0.12347 0.2651,-0.31629 0.2651,-0.40979 0,-0.0254 0.05744,-0.0985 0.127641,-0.16278 0.07022,-0.0643 0.158687,-0.18684 0.196887,-0.27234 0.03825,-0.0855 0.09101,-0.17344 0.117306,-0.19534 0.0263,-0.0218 0.07167,-0.10425 0.100769,-0.18345 0.02908,-0.0792 0.08449,-0.17877 0.12299,-0.22117 0.08443,-0.0929 0.135909,-0.22012 0.135909,-0.33693 0,-0.0486 0.03878,-0.13482 0.08888,-0.19792 0.06341,-0.0798 0.0953,-0.16258 0.111104,-0.28888 0.02784,-0.22277 0.104689,-0.43013 0.257349,-0.69091 l 0.119889,-0.20412 -0.527616,-0.0222 c -0.385145,-0.0162 -0.589002,-0.0241 -0.703833,-0.0212 z" /></g></svg>
