<svg width="52" height="70" viewBox="0 0 52 70" fill="none" xmlns="http://www.w3.org/2000/svg">
<path d="M42.5065 0.768066C41.8105 0.768066 41.3985 1.45485 40.9202 3.40984C40.5647 4.86281 40.1083 6.30187 39.9065 6.60776C39.7048 6.91364 39.3883 8.03988 39.2032 9.11049C39.0182 10.1811 38.5549 11.933 38.1729 13.0036C37.7909 14.0742 36.9923 16.7646 36.398 18.9823C35.7915 21.2454 35.0368 23.0145 34.6781 23.0145C33.5986 23.0145 31.6415 20.6318 30.4103 17.819C28.9923 14.5796 25.3549 11.2415 21.8334 9.94798C19.8597 9.22299 18.5698 9.11804 15.9145 9.46678C14.047 9.71207 12.3061 9.92002 12.0464 9.92843C11.7868 9.93684 10.8715 8.50632 10.0122 6.74896C8.00795 2.64963 7.43468 1.99573 6.62746 2.88844C6.14872 3.41789 6.15809 3.95268 6.67068 5.364C8.02433 9.09139 8.02075 9.11049 5.98213 9.11049C3.90921 9.11049 0.197754 11.1302 0.197754 12.2584C0.197754 13.2172 2.13035 14.5705 4.13161 15.0132C5.02184 15.2101 5.85575 15.5606 5.98508 15.792C6.11441 16.0234 4.47148 17.5039 4.39189 19.9415C4.39189 19.9415 4.17749 24.3866 4.22196 24.8014C4.47883 24.9435 5.48413 28.9269 5.48413 28.9269C6.17216 31.1936 6.7355 33.1678 6.7355 33.3143C6.7355 33.4608 6.22631 33.5849 5.60397 33.5891C3.30664 33.6059 2.02956 34.1189 2.36358 38.8118C2.67912 43.2451 5.19403 48.5546 7.24332 52.2216C7.83357 53.2778 9.93252 55.7729 11.907 57.7658C15.123 61.0118 15.3606 61.3895 14.1946 61.3895C13.4787 61.3895 12.6114 61.7653 12.2665 62.2249C11.5319 63.2037 11.9122 65.9907 13.0405 67.8951C13.7986 69.1747 13.8066 69.1758 26.3026 69.1758C26.3026 69.1758 37.8311 69.1156 38.5542 68.8419C39.2774 68.5681 39.7757 67.113 39.7757 67.113C40.2409 66.0289 40.5388 64.556 40.5892 63.7282C40.6655 62.4745 40.4086 62.1348 39.0471 61.6915C38.1481 61.3988 38.4939 61.6701 38.2251 61.1722C38.283 60.7789 40.2728 58.2988 41.8738 57.0964C43.1181 56.1619 45.7049 52.5974 47.2029 49.4237C48.858 45.917 49.8188 38.138 49.2731 35.086C49.0756 33.9815 49.4294 32.6822 50.496 30.5922C52.7437 26.1878 52.4208 23.3043 49.4921 21.6295C48.6843 21.1675 46.9935 20.7899 45.7351 20.7899C44.4767 20.7899 43.4475 20.5308 43.4475 20.2152C43.4475 19.8997 43.9046 18.1392 44.4641 16.3025C45.0236 14.4659 45.8309 11.2985 46.2577 9.26364C46.6844 7.22882 47.2667 5.08167 47.5522 4.49173C47.9447 3.68073 47.8761 3.20312 47.2713 2.53432C46.1761 1.32313 45.817 1.90117 44.2195 7.44199C43.4699 10.042 42.6848 12.5448 42.4751 13.0036C42.2653 13.4624 41.8129 15.2143 41.4693 16.8967C41.1256 18.5791 40.5489 20.7064 40.1874 21.6241C39.826 22.5417 39.3691 24.1685 39.1728 25.2391C38.556 28.6028 37.013 33.2655 36.4471 33.474C35.4832 33.8293 36.1151 27.8669 37.4087 24.4049C37.6373 23.7931 38.4258 21.0401 39.161 18.2871C39.8962 15.5341 40.8507 12.0303 41.2817 10.5009C42.0741 7.68843 43.3968 1.95258 43.4298 1.18519C43.4396 0.95578 43.0237 0.768066 42.5065 0.768066ZM2.90773 11.9239C3.93514 11.8942 5.60889 11.9682 5.86425 12.0824C6.20473 12.2348 6.23852 12.2253 5.40873 12.2148C4.57894 12.2043 1.68371 12.1311 2.17302 11.9901C2.29535 11.955 2.56526 11.9337 2.90773 11.9239ZM18.2807 12.228C21.4488 12.2753 22.5891 12.5367 24.0827 13.5576C26.2001 15.0048 28.8633 18.7776 28.8633 20.3304C28.8633 21.1724 27.1805 22.4583 26.0786 22.4583C25.9665 22.4583 25.2957 21.0572 24.5876 19.3451C23.507 16.7325 23.1814 16.3416 22.5612 16.9108C21.5735 17.8174 21.6297 18.7475 22.8284 21.346C24.0181 23.925 24.0849 24.683 23.1241 24.683C22.7338 24.683 21.8112 25.475 21.0741 26.4438C19.9678 27.8978 19.7631 28.6498 19.8984 30.754L20.0624 33.3034C19.7059 33.3224 17.5215 33.5742 15.0422 33.8683C18.9704 34.7267 23.4176 34.7926 21.0182 34.8025C22.1242 35.1627 20.5131 35.1528 18.0371 35.1533C18.5845 35.4464 21.0712 35.7934 29.7021 35.7975C38.3231 35.8017 45.7347 35.9572 46.1722 36.1429C48.0416 36.9362 46.2705 46.4224 43.363 51.1896C41.3956 54.4156 38.2025 57.351 34.6015 59.2442C31.2902 60.9851 25.2822 61.7599 21.8226 60.892C13.5315 58.812 50.5941 45.6323 48.0109 36.5231C47.0448 33.1163 12.9462 35.1545 18.0371 35.1533C18.0176 35.1428 17.9801 35.1321 17.9654 35.1218C16.6591 34.2084 10.7054 34.1804 7.2718 34.546C4.0964 34.8841 22.0453 35.759 27.1434 35.1544C25.2012 34.7299 11.2836 32.8286 10.4867 31.9249C7.71368 28.7808 6.34912 25.9771 7.23447 21.3633C8.29598 15.8316 11.5273 13.5594 12.4639 17.6864C12.8243 19.2744 14.7061 19.9873 15.1513 18.7042C15.3205 18.2164 14.9458 16.8318 14.3193 15.6279C12.7704 12.6516 13.3508 12.1542 18.2807 12.228ZM42.9966 23.5598C43.4768 23.5787 44.0052 23.9979 44.2018 24.683C44.3774 25.2947 44.8728 25.7953 45.3029 25.7953C45.9411 25.7953 45.9699 25.9487 45.4591 26.6295C44.3817 28.0651 42.5955 27.6734 42.2953 25.9365C42.1502 25.097 42.1367 24.2211 42.2658 23.9899C42.4376 23.6825 42.7085 23.549 42.9966 23.5598ZM30.8189 23.5703C31.0509 23.5703 31.8132 24.2028 32.5132 24.977C34.1971 26.8392 34.6683 29.7138 33.6477 31.8964L32.86 33.5812H28.1246C23.8005 33.5812 23.3202 33.4736 22.6054 32.345C21.1464 30.0413 22.0829 26.8058 23.8509 28.0424C24.2565 28.3261 25.4314 28.5629 26.4617 28.5671C28.1965 28.5755 28.4115 28.3907 29.3662 26.073C29.9332 24.6965 30.5869 23.5703 30.8189 23.5703ZM41.7836 32.4765C42.8805 32.4828 43.0274 32.6064 42.4417 33.025C41.4754 33.7156 41.0674 33.7156 40.6815 33.025C40.5021 32.7041 40.9683 32.4723 41.7836 32.4765ZM26.1336 64.7262C36.6744 64.7262 37.4744 64.7957 37.3173 65.6994C37.1636 66.5838 36.1818 66.6855 26.5776 66.8215C16.2277 66.968 14.782 66.766 14.782 65.1704C14.782 64.9256 19.8899 64.7262 26.1336 64.7262Z" fill="black"/>
<path d="M13.918 34.0959C12.6486 33.7198 12.2202 33.5514 11.4604 33.1299C10.7624 32.7427 10.2011 32.1672 9.27607 30.8905C7.55836 28.5197 6.48732 26.5556 6.48828 24.0123C6.48982 20.3665 8.34744 16.3987 10.0522 15.4482C11.0867 14.8713 11.8933 15.524 12.3656 17.3201C12.6185 18.2817 13.1044 18.8881 13.8097 19.1221C14.3028 19.2856 14.6796 19.2097 14.9603 18.8897C15.2255 18.5874 15.1738 18.2691 15.0794 17.6873C14.9677 16.999 14.6061 16.5341 14.0523 15.3141C13.2849 13.6239 13.4108 12.8308 13.8042 12.4114C14.0799 12.1175 14.3475 11.9921 14.9591 11.8705C16.2074 11.6225 20.0347 11.6627 21.5241 11.9393C23.2058 12.2518 24.5611 13.1085 26.0764 14.817C27.951 16.9305 29.2976 19.4317 29.0779 20.3917C29.0033 20.7173 28.5176 21.31 28.0269 21.6742C27.5393 22.036 26.8182 22.3602 26.5009 22.3602C26.1906 22.3602 26.2533 23.4693 24.4327 19.185C23.8781 17.88 23.3954 16.7408 23.0887 16.7408C22.783 16.7408 22.5934 16.7732 22.2635 17.2595C22.0643 17.5531 22.0001 17.7509 22.0268 18.2857C22.0632 19.0117 22.2528 19.5983 23.11 21.638C24.1432 24.0961 24.1803 24.589 23.3435 24.7397C23.1609 24.7727 22.8677 24.8951 22.6919 25.0115C22.2452 25.3077 21.0552 26.6905 20.6545 27.3788C19.9575 28.5762 19.8736 29.1696 20.0251 31.8268C20.0843 32.8642 20.1154 33.7326 20.0943 33.7567C20.0624 33.7928 16.8639 34.1868 15.3271 34.3436C14.9659 34.3804 14.7515 34.3431 13.918 34.0959Z" fill="#FF8600"/>
<path d="M24.7445 33.8769C23.5438 33.7529 23.0885 33.5365 22.6018 32.8585C21.665 31.5533 21.3404 29.4114 21.8738 28.0542C22.251 27.0947 22.8039 26.8848 23.6081 27.3961C24.318 27.8474 24.9274 27.9721 26.4244 27.9724C27.661 27.9726 27.7661 27.9598 28.0288 27.7842C28.4824 27.4804 28.741 27.0089 29.4737 25.1499C30.1493 23.4355 30.7426 22.2127 30.9462 22.1148C31.0888 22.0463 31.357 22.2382 31.9393 22.8249C32.9164 23.8094 33.521 24.7374 33.9545 25.9177C34.3898 27.1032 34.4649 27.5548 34.4655 28.9926C34.4661 30.5548 34.3883 30.9124 33.66 32.6902L33.155 33.9227L29.2638 33.9332C27.1236 33.9374 25.0899 33.9111 24.7445 33.8769Z" fill="#FF0000" stroke="#5B0000" stroke-width="0.0720787"/>
<path d="M16.6958 66.988C15.6968 66.8003 14.7586 66.3699 14.4288 65.9476C14.1344 65.5707 13.8626 64.3622 14.0274 64.1631C14.4279 63.6795 19.1227 63.4194 27.5121 63.4161C37.62 63.4119 38.6475 63.5819 38.4367 65.2227C38.2841 66.4107 37.169 66.7447 32.4614 67.0121C28.5614 67.2338 17.918 67.2167 16.6958 66.988Z" fill="#327349"/>
<path d="M7.21603 9.98822C5.3501 9.79693 3.82213 10.1793 2.31995 10.9441C0.936423 11.6485 1.00121 11.7793 0.978313 11.8153C0.837681 12.0365 0.862684 12.3258 1.08597 12.7256C1.21753 13.0058 2.31995 13.4474 2.31995 13.4474C8.6673 16.3672 2.97382 13.3604 3.56391 13.8993C5.38199 14.5423 4.18246 14.2269 5.20656 14.7161C6.37077 15.2724 6.24765 15.0504 6.38872 14.784C6.88111 13.2894 6.65983 14.091 6.96086 13.083C7.25651 12.0929 7.27982 11.3276 7.27982 11.3276C7.27982 11.3276 7.33018 10.4277 7.27982 10.061C7.26901 9.98283 7.21603 9.98822 7.21603 9.98822Z" fill="#008000"/>
<path d="M7.12 12.4995C7.07249 12.4953 7.02388 12.5037 6.97647 12.4995C6.79904 12.4806 6.62644 12.4234 6.45018 12.3952C6.20741 12.3563 6.41753 12.3951 6.20298 12.3692C6.16822 12.365 6.13418 12.3544 6.09933 12.3523C6.06488 12.3502 6.02999 12.3565 5.99567 12.3523C5.96045 12.3481 5.92706 12.3313 5.89201 12.3263C5.85778 12.32 5.82291 12.32 5.78836 12.3179C5.71925 12.3074 5.65001 12.2956 5.58104 12.2832C5.3796 12.2466 5.60227 12.2895 5.44547 12.2397C5.38936 12.2229 5.32714 12.2271 5.27004 12.2136C5.21143 12.1989 5.15495 12.1844 5.09462 12.1789C5.02335 12.1726 4.95067 12.1852 4.87931 12.1789C4.80714 12.1726 4.73616 12.1579 4.66402 12.1529C4.54823 12.1444 4.42922 12.1529 4.31316 12.1529C4.19447 12.1529 4.07247 12.1634 3.95432 12.1529C3.93812 12.1518 3.92257 12.1465 3.9065 12.1444C3.86511 12.1402 3.82045 12.1444 3.77892 12.1444C3.64658 12.1444 3.51932 12.1487 3.38819 12.1613C3.36701 12.1634 3.34546 12.1592 3.3244 12.1613C3.3136 12.163 3.30338 12.1697 3.2925 12.1697C3.23218 12.176 3.1693 12.1613 3.10909 12.1697C3.1033 12.1702 3.09905 12.1781 3.09307 12.1781C3.06675 12.1823 3.03999 12.1844 3.01334 12.1865C2.97736 12.1886 2.92193 12.176 2.88574 12.1949" fill="black"/>
<path d="M16.2894 35.1199C16.248 35.1218 16.2067 35.1262 16.1654 35.1262C14.7108 35.2034 13.2559 35.2742 11.8005 35.3148C10.6056 35.3467 9.41082 35.3644 8.21572 35.3587H6.01261C5.88233 35.3816 5.75149 35.3999 5.62217 35.4316C5.52195 35.4573 5.42092 35.476 5.32031 35.4985C5.54814 42.739 7.89866 49.5847 11.8817 54.6079C15.8647 59.6312 21.1728 62.4443 26.699 62.4606C31.9582 62.4542 37.0323 59.9136 40.9565 55.322C44.8807 50.7305 47.3815 44.408 47.9832 37.5567C47.7261 37.7011 47.469 37.8458 47.2053 37.9691C46.5224 38.2895 45.8299 38.5747 45.1195 38.762C44.5313 38.9255 43.942 39.0845 43.3519 39.2353C42.6884 39.3806 42.0213 39.5005 41.3495 39.5469C40.6742 39.5944 39.9987 39.6024 39.3228 39.568C38.6393 39.5364 37.9576 39.4681 37.2784 39.358C36.6107 39.2592 35.9437 39.1501 35.279 39.0194C34.5779 38.8813 33.8785 38.7317 33.1829 38.5491C32.5557 38.383 31.9287 38.2162 31.3045 38.0308C30.6397 37.8507 29.9732 37.6782 29.3103 37.4855C28.623 37.2856 27.9371 37.0782 27.2466 36.8993C26.6056 36.7337 25.9646 36.5662 25.3188 36.437C24.6561 36.2942 23.9918 36.1668 23.3261 36.0525C22.6193 35.9273 21.9102 35.8257 21.2034 35.701C20.5836 35.5888 19.9632 35.4877 19.3398 35.4184C18.6744 35.3448 18.0093 35.2595 17.3433 35.1966C16.9923 35.1654 16.6407 35.1445 16.2894 35.1199Z" fill="#327349" stroke="black" stroke-width="0.417811"/>
<path d="M41.8722 40.6898C40.8296 40.5341 39.764 39.7429 39.2376 38.7339C39.0723 38.4171 38.7678 37.4675 38.8179 37.425C38.8294 37.4144 39.0268 37.3577 39.2557 37.2978C40.5727 36.9536 41.7884 35.8099 42.2015 34.5264L42.2769 34.292L42.7286 34.2569C42.9771 34.238 43.2234 34.2031 43.276 34.1802C43.3505 34.1478 43.4008 34.2233 43.5034 34.5224C43.859 35.5587 44.8003 36.6191 45.7374 37.039C45.8844 37.1048 46.0042 37.1879 46.0039 37.2236C46.0034 37.2593 45.9634 37.4725 45.9147 37.6974C45.4912 39.6554 43.7203 40.9661 41.8722 40.6898ZM37.8213 36.7239C36.6505 36.5961 35.5647 35.7567 35.0104 34.5509C34.5383 33.5238 34.5258 32.171 34.9788 31.1275C35.188 30.6455 35.6187 30.0366 35.9387 29.7703L36.2052 29.5485L36.5023 29.7125C36.8566 29.9082 37.6088 30.1273 37.9262 30.1273C38.1263 30.1273 38.1574 30.1485 38.187 30.3055C38.3654 31.2524 38.5802 31.8127 39.0029 32.4339C39.5 33.1646 40.2837 33.7774 41.0358 34.0237C41.7317 34.2516 41.6862 34.1845 41.4689 34.6636C41.343 34.9413 41.1258 35.2516 40.8317 35.5743C40.0012 36.4855 39.0314 36.8559 37.8213 36.7239ZM47.0456 36.7281C46.2153 36.6434 45.5162 36.271 44.8748 35.5717C44.5741 35.2439 44.3667 34.9475 44.2395 34.6638C43.9335 33.981 43.9333 33.9851 44.28 33.7952C45.4679 33.145 46.3353 31.9028 46.5468 30.5487L46.6176 30.0951L47.2655 30.1172C48.019 30.1428 48.5812 30.0302 49.141 29.7417L49.5068 29.5532L49.7706 29.7727C49.9157 29.8934 50.1562 30.1687 50.3049 30.3844C51.6018 32.2644 51.2046 34.8155 49.411 36.1262C48.761 36.6013 47.9143 36.8167 47.0456 36.7281ZM41.6343 33.5201C40.989 33.3709 40.4111 33.0359 39.9203 32.5267C39.4379 32.0261 39.1653 31.5741 38.956 30.9278C38.7599 30.3221 38.7637 30.1405 38.9733 30.0927C40.3783 29.7723 41.346 29.0194 42.0103 27.7298L42.1939 27.3734L42.8526 27.3776L43.5114 27.3818L43.7704 27.8629C44.2006 28.6623 44.9776 29.4188 45.7083 29.7497C46.0558 29.9071 46.0608 29.933 45.8863 30.6762C45.6329 31.756 44.9498 32.6746 44.0345 33.1662C43.2155 33.6062 42.4799 33.7157 41.6343 33.5201ZM37.6799 29.4347C37.0317 29.3164 36.2442 28.8702 35.7622 28.3479C35.0199 27.5435 34.6782 26.6542 34.6782 25.5265C34.6782 24.3998 35.0199 23.5093 35.7602 22.7072C36.404 22.0095 37.1753 21.6494 38.1506 21.5909C38.743 21.5553 38.7679 21.5591 38.7218 21.6771C38.6204 21.9368 38.6159 23.337 38.7141 23.7975C38.9205 24.7571 39.4595 25.7068 40.15 26.3275C40.5042 26.6459 41.318 27.1466 41.4812 27.1466C41.6002 27.1466 41.5441 27.3265 41.3024 27.721C40.8058 28.5315 39.9811 29.1536 39.1053 29.3786C38.7483 29.4702 38.0299 29.4986 37.6799 29.4347ZM46.5706 29.3792C45.712 29.1426 44.8743 28.4984 44.4029 27.7121C44.1593 27.3058 44.1091 27.1466 44.2246 27.1466C44.2594 27.1466 44.4842 27.0423 44.7242 26.9147C45.8415 26.3209 46.6873 25.1552 46.9871 23.7958C47.0664 23.4365 47.0834 23.1524 47.0612 22.5645C47.0457 22.1442 47.0108 21.7448 46.9844 21.677C46.9387 21.5591 46.9636 21.5553 47.5559 21.5908C48.5308 21.6493 49.3223 22.0192 49.955 22.7119C50.6886 23.5151 51.0283 24.4059 51.0283 25.5264C51.0283 26.048 50.9977 26.3128 50.8972 26.6605C50.5357 27.9099 49.6947 28.8409 48.5188 29.2935C48.0567 29.4713 47.0637 29.515 46.5706 29.3792ZM42.3042 26.6905C41.5346 26.5608 40.766 26.105 40.196 25.4401C39.1522 24.2226 38.9345 22.4053 39.6529 20.9051C39.9221 20.343 40.6843 19.5292 41.1917 19.2622C41.8168 18.9332 42.2183 18.8315 42.8844 18.8334C43.3864 18.8348 43.5601 18.8652 43.9871 19.0255C46.4979 19.9687 47.3014 23.3515 45.5107 25.4402C45.3205 25.6619 45.0141 25.9525 44.8295 26.0861C44.1525 26.5758 43.1074 26.8259 42.3042 26.6905ZM39.2673 19.7572C39.183 19.6849 39.0971 19.5679 39.0765 19.497C39.0559 19.4259 38.9367 19.3111 38.8115 19.2415C38.6865 19.1719 38.5211 19.0249 38.4442 18.9148C38.3672 18.8046 38.1528 18.5486 37.9676 18.3457C37.7175 18.0716 37.6198 17.9113 37.5873 17.7217C37.5551 17.5338 37.4625 17.3802 37.2356 17.1385C36.9183 16.8004 36.7284 16.3674 36.7284 15.9819C36.7284 15.8712 36.6629 15.7075 36.5709 15.5884C36.3641 15.3212 36.2528 15.0225 36.2528 14.7345C36.2528 14.6062 36.2198 14.4376 36.1795 14.3598C36.1392 14.282 36.086 13.9849 36.0613 13.6998C36.0366 13.4146 36.0005 13.0185 35.981 12.8195C35.956 12.5632 35.9733 12.3867 36.0389 12.2142C36.1051 12.0416 36.1151 11.936 36.0736 11.8513C35.9832 11.6671 35.9992 11.5698 36.2243 10.9423C36.4449 10.3269 36.6096 9.59424 36.6096 9.2279C36.6096 9.10767 36.631 8.99478 36.6571 8.97721C36.6831 8.96039 36.8878 9.04574 37.1118 9.16871C37.5246 9.39512 38.2927 9.67262 38.7129 9.74714C38.8606 9.77341 39.0182 9.8676 39.1531 10.0104C39.2686 10.1327 39.4114 10.2328 39.4703 10.2328C39.7231 10.2328 40.237 10.6081 40.237 10.7927C40.237 10.8379 40.33 10.9228 40.4437 10.9817C40.6384 11.0824 41.069 11.5368 41.0699 11.6425C41.0701 11.6692 41.1627 11.7596 41.2758 11.8435C41.4607 11.9807 41.7831 12.5425 41.7831 12.7276C41.7831 12.767 41.9241 12.9581 42.0965 13.1523C42.4172 13.5137 42.5561 13.8448 42.5561 14.248C42.5561 14.3924 42.6192 14.5374 42.7607 14.7175C42.9571 14.9675 43.1363 15.5447 43.0595 15.68C43.0422 15.7118 43.075 15.8173 43.1334 15.9148C43.2086 16.0398 43.2414 16.2265 43.2453 16.5484C43.2491 16.7995 43.2839 17.0924 43.3244 17.1993C43.3672 17.312 43.3828 17.4992 43.3618 17.6449C43.2966 18.0956 43.2704 18.1156 42.6893 18.1566C42.3998 18.1776 41.9905 18.2423 41.7797 18.3016C41.0505 18.5072 40.1773 19.0795 39.7362 19.6411C39.5121 19.9263 39.4751 19.9354 39.2673 19.7572ZM44.9941 18.7915C44.7575 18.637 44.2711 18.4074 43.9669 18.3063C43.883 18.2786 43.8708 18.2345 43.9075 18.0917C43.9973 17.7408 43.8901 16.0931 43.7555 15.7411C43.7211 15.652 43.677 15.4479 43.6573 15.2875C43.6376 15.1271 43.5562 14.8646 43.4762 14.7042C43.2327 14.2153 43.1661 14.038 43.0906 13.6779C43.0198 13.3404 43.0223 13.3254 43.1953 13.0622C43.2929 12.9138 43.5004 12.6859 43.6566 12.5556C43.8128 12.4253 44.014 12.1901 44.1038 12.0329C44.2877 11.7111 44.55 11.4504 44.8682 11.2734C44.9864 11.2077 45.1367 11.0883 45.2022 11.0081C45.3233 10.8597 45.8522 10.5586 45.9936 10.5574C46.0364 10.5571 46.1787 10.4628 46.3097 10.3481C46.5186 10.1652 46.6009 10.1363 46.9752 10.1143C47.2475 10.0975 47.4399 10.0532 47.506 9.98946C47.6223 9.87721 47.7072 9.87491 49.193 9.94302L50.2106 9.98967L49.98 10.4191C49.6855 10.9672 49.5364 11.4025 49.4827 11.8708C49.4522 12.1363 49.3909 12.3102 49.2686 12.478C49.172 12.6106 49.0971 12.7922 49.0971 12.8944C49.0971 13.14 48.9984 13.4073 48.8355 13.6026C48.7612 13.6917 48.6544 13.9008 48.5983 14.0673C48.5422 14.2338 48.4546 14.4076 48.4039 14.4535C48.3531 14.4996 48.2513 14.684 48.1775 14.8637C48.1038 15.0434 47.9327 15.3008 47.7973 15.4359C47.6619 15.571 47.551 15.7252 47.551 15.7787C47.551 15.9752 47.3106 16.3806 47.04 16.6401C46.8871 16.7869 46.7011 17.0501 46.6267 17.225C46.5522 17.3999 46.4082 17.6101 46.3064 17.6921C46.2045 17.7741 46.0697 17.9367 46.0065 18.0533C45.9435 18.1699 45.7844 18.3461 45.6533 18.445C45.5221 18.544 45.4138 18.6557 45.4125 18.6935C45.4112 18.7313 45.3768 18.8081 45.336 18.8642C45.2694 18.9554 45.2336 18.9477 44.9941 18.7915Z" fill="#800080" stroke="black" stroke-width="0.955465"/>
<path d="M36.7937 8.99531C36.7677 9.01213 36.7469 9.12606 36.7469 9.24623C36.7469 9.61257 36.5818 10.345 36.3611 10.9603C36.136 11.5878 36.1201 11.6854 36.2106 11.8695C36.2521 11.9543 36.2419 12.0598 36.1757 12.2324C36.1101 12.4047 36.0928 12.581 36.1179 12.8374C36.1374 13.0364 36.173 13.4321 36.1976 13.7172C36.2223 14.0024 36.2759 14.2999 36.3163 14.3777C36.3566 14.4555 36.39 14.6242 36.39 14.7524C36.39 15.0405 36.5012 15.339 36.708 15.6062C36.8 15.7252 36.8655 15.8887 36.8655 15.9995C36.8655 16.385 37.0555 16.8182 37.3728 17.1563C37.5997 17.3981 37.6915 17.5517 37.7237 17.7396C37.7562 17.9292 37.8543 18.0891 38.1044 18.3631C38.2896 18.566 38.5039 18.8222 38.5809 18.9324C38.6578 19.0425 38.8237 19.1897 38.9487 19.2593C39.0739 19.3289 39.1932 19.4434 39.2138 19.5146C39.2345 19.5854 39.3199 19.7029 39.4042 19.7753C39.6121 19.9533 39.6486 19.9443 39.8727 19.659C40.3138 19.0974 41.1878 18.5253 41.917 18.3197C42.1278 18.2604 42.5366 18.195 42.8261 18.174C43.4071 18.133 43.4337 18.113 43.4989 17.6624C43.5199 17.5167 43.5039 17.3297 43.461 17.217C43.4205 17.11 43.3861 16.8174 43.3823 16.5664C43.3784 16.2444 43.3459 16.0571 43.2706 15.932C43.2122 15.8345 43.1785 15.7291 43.1959 15.6974C43.2726 15.562 43.0942 14.985 42.8978 14.7349C42.7563 14.5548 42.6925 14.4101 42.6925 14.2657C42.6925 13.8625 42.5537 13.531 42.233 13.1697C42.0606 12.9754 41.92 12.7842 41.92 12.7449C41.92 12.5597 41.5976 11.998 41.4127 11.8607C41.2996 11.7769 41.2066 11.6865 41.2063 11.6598C41.2055 11.554 40.775 11.1 40.5804 10.9993C40.4666 10.9405 40.3741 10.8555 40.3741 10.8104C40.3741 10.6258 39.8604 10.2509 39.6075 10.2509C39.5487 10.2509 39.4051 10.1507 39.2896 10.0283C39.1547 9.88553 38.9977 9.79166 38.85 9.76539C38.4299 9.69098 37.661 9.41282 37.2482 9.18641C37.0242 9.06345 36.8198 8.97829 36.7937 8.99531ZM47.9724 9.91646C47.7509 9.92276 47.7006 9.95157 47.6424 10.0077C47.5764 10.0714 47.3845 10.1157 47.1122 10.1325C46.7378 10.1544 46.6552 10.1832 46.4463 10.3661C46.3153 10.4809 46.1732 10.5744 46.1303 10.5746C45.989 10.5758 45.4601 10.877 45.3389 11.0254C45.2735 11.1055 45.1232 11.2257 45.005 11.2915C44.6869 11.4685 44.4243 11.7291 44.2405 12.0508C44.1507 12.208 43.9492 12.443 43.793 12.5733C43.6368 12.7036 43.4301 12.9311 43.3325 13.0795C43.1594 13.3427 43.157 13.3579 43.2278 13.6954C43.3033 14.0556 43.3691 14.233 43.6125 14.7219C43.6926 14.8823 43.7743 15.1448 43.7939 15.3052C43.8136 15.4656 43.8583 15.6702 43.8926 15.7593C44.0273 16.1113 44.134 17.758 44.0441 18.1088C44.0075 18.2516 44.02 18.2961 44.1039 18.3239C44.4082 18.425 44.894 18.655 45.1306 18.8095C45.3701 18.9657 45.406 18.9735 45.4725 18.8822C45.5134 18.8261 45.5479 18.7496 45.5492 18.7117C45.5505 18.6739 45.6593 18.5621 45.7905 18.463C45.9216 18.3642 46.0802 18.1875 46.1433 18.0709C46.2064 17.9542 46.3415 17.7922 46.4433 17.7102C46.5451 17.6282 46.6889 17.418 46.7633 17.2431C46.8377 17.0682 47.024 16.8044 47.177 16.6576C47.4476 16.3981 47.6883 15.9928 47.6883 15.7962C47.6883 15.7429 47.7991 15.5892 47.9345 15.4541C48.0699 15.3189 48.2406 15.0613 48.3143 14.8816C48.388 14.7019 48.4898 14.517 48.5405 14.471C48.5912 14.4252 48.6788 14.2519 48.7349 14.0854C48.791 13.9189 48.8979 13.7096 48.9721 13.6205C49.135 13.4252 49.2343 13.1578 49.2343 12.9122C49.2343 12.8101 49.3091 12.6288 49.4057 12.4962C49.528 12.3285 49.5895 12.1545 49.62 11.889C49.6737 11.4207 49.8219 10.9848 50.1164 10.4367L50.3476 10.0076L49.3299 9.96094C48.5871 9.92689 48.1939 9.91036 47.9724 9.91646Z" fill="#008000" stroke="black" stroke-width="0.955465"/>
</svg>
