<svg width="1782" height="1787" viewBox="0 0 1782 1787" fill="none" xmlns="http://www.w3.org/2000/svg">
<g filter="url(#filter0_d_122_8)">
<path d="M428.672 1690.18C235.986 1757.61 -94 1732.38 -94 1732.38V1361.83C-94 1361.83 86.3631 1179.15 107.156 1030.23C132.441 849.136 -80.36 773.25 -60.5668 591.517C-46.5483 462.804 -16.5125 378.543 80.4097 289.667C220.418 161.283 381.576 259.414 565.748 204.738C755.971 148.266 832.985 21.6205 1031.03 3.50534C1224.54 -14.1957 1337.29 37.2357 1516.36 110.613C1668.89 173.112 1878 325.37 1878 325.37V770.571C1878 770.571 1771.65 886.777 1713.62 968.558C1619.09 1101.77 1640.68 1228.14 1516.36 1335.86C1317.66 1508.04 1085.37 1319.89 839.9 1420.25C661.237 1493.29 611.047 1626.37 428.672 1690.18Z" fill="#2A593B"/>
</g>
<defs>
<filter id="filter0_d_122_8" x="-94" y="0" width="2027" height="1787" filterUnits="userSpaceOnUse" color-interpolation-filters="sRGB">
<feFlood flood-opacity="0" result="BackgroundImageFix"/>
<feColorMatrix in="SourceAlpha" type="matrix" values="0 0 0 0 0 0 0 0 0 0 0 0 0 0 0 0 0 0 127 0" result="hardAlpha"/>
<feOffset dx="50" dy="45"/>
<feGaussianBlur stdDeviation="2.5"/>
<feComposite in2="hardAlpha" operator="out"/>
<feColorMatrix type="matrix" values="0 0 0 0 0.94902 0 0 0 0 0.854902 0 0 0 0 0.67451 0 0 0 0.8 0"/>
<feBlend mode="normal" in2="BackgroundImageFix" result="effect1_dropShadow_122_8"/>
<feBlend mode="normal" in="SourceGraphic" in2="effect1_dropShadow_122_8" result="shape"/>
</filter>
</defs>
</svg>
