<svg width="1769" height="1080" viewBox="0 0 1769 1080" fill="none" xmlns="http://www.w3.org/2000/svg">
<g filter="url(#filter0_d_410_593)">
<path d="M741.552 764.939C959.997 829.491 803.138 1060.31 1037.98 1104.59C1231.62 1141.11 1450.53 1132.64 1582.45 1014.35C1709.47 900.459 1682.95 762.634 1529.21 693.16C1430.84 648.705 1323.37 692.387 1205.15 668.374C773.62 580.722 1134.51 107.571 703.208 19.6145C429.833 -36.1354 219.986 94.0883 -76.2509 80.1703C-475.21 61.4262 -757.622 -371.174 -998.057 -139.394C-1159.2 15.9454 -1078.4 162.329 -926.923 289.796C-730.596 454.999 -323.894 264.822 -67.3828 392.688C135.434 493.787 19.4471 693.283 260.398 759.613C423.724 804.575 580.586 717.372 741.552 764.939Z" fill="#2A593B"/>
</g>
<defs>
<filter id="filter0_d_410_593" x="-1086.37" y="-207.503" width="2854.59" height="1391.22" filterUnits="userSpaceOnUse" color-interpolation-filters="sRGB">
<feFlood flood-opacity="0" result="BackgroundImageFix"/>
<feColorMatrix in="SourceAlpha" type="matrix" values="0 0 0 0 0 0 0 0 0 0 0 0 0 0 0 0 0 0 127 0" result="hardAlpha"/>
<feOffset dx="100" dy="55"/>
<feGaussianBlur stdDeviation="2.5"/>
<feComposite in2="hardAlpha" operator="out"/>
<feColorMatrix type="matrix" values="0 0 0 0 0.94902 0 0 0 0 0.854902 0 0 0 0 0.67451 0 0 0 0.8 0"/>
<feBlend mode="normal" in2="BackgroundImageFix" result="effect1_dropShadow_410_593"/>
<feBlend mode="normal" in="SourceGraphic" in2="effect1_dropShadow_410_593" result="shape"/>
</filter>
</defs>
</svg>
