<svg width="1782" height="1486" viewBox="0 0 1782 1486" fill="none" xmlns="http://www.w3.org/2000/svg">
<g filter="url(#filter0_d_211_3)">
<path d="M425.179 61.2694C48.4789 83.6322 -524.648 320.637 -524.648 320.637L-522.262 772.221L2475.7 756.378L2471.97 50.4529C2471.97 50.4529 1962.51 278.598 1626.05 309.271C1154.11 352.295 897.636 33.2219 425.179 61.2694Z" fill="#2A593B"/>
</g>
<g filter="url(#filter1_d_211_3)">
<path d="M1442.91 1410.17C1819.44 1385.23 2390.93 1144.3 2390.93 1144.3L2385.45 692.739L-612.337 729.147L-603.764 1435.03C-603.764 1435.03 -95.8756 1203.4 240.366 1170.41C711.993 1124.15 970.653 1441.46 1442.91 1410.17Z" fill="#2A593B"/>
</g>
<defs>
<filter id="filter0_d_211_3" x="-524.648" y="0.452942" width="3055.35" height="771.768" filterUnits="userSpaceOnUse" color-interpolation-filters="sRGB">
<feFlood flood-opacity="0" result="BackgroundImageFix"/>
<feColorMatrix in="SourceAlpha" type="matrix" values="0 0 0 0 0 0 0 0 0 0 0 0 0 0 0 0 0 0 127 0" result="hardAlpha"/>
<feOffset dx="50" dy="-45"/>
<feGaussianBlur stdDeviation="2.5"/>
<feComposite in2="hardAlpha" operator="out"/>
<feColorMatrix type="matrix" values="0 0 0 0 0.94902 0 0 0 0 0.854902 0 0 0 0 0.67451 0 0 0 0.8 0"/>
<feBlend mode="normal" in2="BackgroundImageFix" result="effect1_dropShadow_211_3"/>
<feBlend mode="normal" in="SourceGraphic" in2="effect1_dropShadow_211_3" result="shape"/>
</filter>
<filter id="filter1_d_211_3" x="-612.336" y="692.739" width="3058.27" height="792.291" filterUnits="userSpaceOnUse" color-interpolation-filters="sRGB">
<feFlood flood-opacity="0" result="BackgroundImageFix"/>
<feColorMatrix in="SourceAlpha" type="matrix" values="0 0 0 0 0 0 0 0 0 0 0 0 0 0 0 0 0 0 127 0" result="hardAlpha"/>
<feOffset dx="50" dy="45"/>
<feGaussianBlur stdDeviation="2.5"/>
<feComposite in2="hardAlpha" operator="out"/>
<feColorMatrix type="matrix" values="0 0 0 0 0.94902 0 0 0 0 0.854902 0 0 0 0 0.67451 0 0 0 0.8 0"/>
<feBlend mode="normal" in2="BackgroundImageFix" result="effect1_dropShadow_211_3"/>
<feBlend mode="normal" in="SourceGraphic" in2="effect1_dropShadow_211_3" result="shape"/>
</filter>
</defs>
</svg>
